<?xml version="1.0" encoding="utf-8"?>
<!-- Generator: Adobe Illustrator 19.2.1, SVG Export Plug-In . SVG Version: 6.00 Build 0)  -->
<svg version="1.1" id="Ebene_1" xmlns="http://www.w3.org/2000/svg" xmlns:xlink="http://www.w3.org/1999/xlink" x="0px" y="0px"
	 viewBox="0 0 119.1 29.5" style="enable-background:new 0 0 119.1 29.5;" xml:space="preserve">
<style type="text/css">
	.st0{fill-rule:evenodd;clip-rule:evenodd;fill:#005399;}
	.st1{fill:#005399;}
</style>
<g>
	<path class="st0" d="M4.7,23.4l1.4-4.6h5.5l1.3,4.6h5.1l-5-17.7c-0.3-1-0.9-1.5-2-1.5H3.7v1.7h0.6c0.8,0,1.2,0.3,1.2,0.9
		c0,0.4-0.1,0.7-0.4,1.6L0,23.4H4.7L4.7,23.4z M10.8,15.6H6.8l2.2-7.1L10.8,15.6L10.8,15.6z"/>
	<path class="st1" d="M23.8,23.4V5.7c0-0.9-0.5-1.5-1.4-1.5h-4.4v1.7h0.3c0.8,0,1.1,0.3,1.1,1.1v16.5H23.8L23.8,23.4z"/>
	<path class="st1" d="M31.5,23.4V5.7c0-0.9-0.5-1.5-1.4-1.5h-4.4v1.7h0.3c0.7,0,1.1,0.3,1.1,1.1v16.5H31.5L31.5,23.4z"/>
	<path class="st0" d="M39.3,23.4V10.5c0-0.9-0.5-1.5-1.4-1.5h-4.4v1.6h0.3c0.8,0,1.1,0.3,1.1,1.1v11.7H39.3L39.3,23.4z M39.3,5.9
		c0-1.3-1-2.1-2.6-2.1c-1.6,0-2.6,0.8-2.6,2.1c0,1.3,1,2.1,2.6,2.1C38.4,8,39.3,7.2,39.3,5.9L39.3,5.9z"/>
	<path class="st0" d="M43.1,13.1c1.5-0.7,3.1-1.1,4.4-1.1c1.2,0,1.6,0.4,1.6,1.7V14c-1.8,0.3-2.4,0.4-3.5,0.6
		c-0.6,0.1-1.2,0.3-1.7,0.5c-1.8,0.7-2.7,2.1-2.7,4.3c0,2.7,1.2,4.1,3.6,4.1c0.9,0,1.7-0.2,2.4-0.5c0.6-0.3,1-0.5,1.9-1.2v0.2
		c0,0.9,0.5,1.4,1.4,1.4h4.1v-1.6h-0.2c-0.8,0-1.1-0.3-1.1-1.3v-6.9c0-3.7-1.3-4.9-4.9-4.9c-1.2,0-2.3,0.1-3.5,0.4
		c-1.1,0.3-1.7,0.5-3.1,1.2L43.1,13.1L43.1,13.1z M49.2,16.5v2.8c-0.8,0.8-1.7,1.2-2.5,1.2c-0.8,0-1.1-0.4-1.1-1.5s0.2-1.6,1-1.9
		C47.3,16.9,48,16.7,49.2,16.5L49.2,16.5z"/>
	<path class="st0" d="M61.4,23.4v-9.7c0.8-0.8,1.5-1.2,2.4-1.2c1,0,1.2,0.4,1.2,1.8v9.1h4.5v-9.8c0-2.3-0.2-3-0.9-3.8
		c-0.6-0.7-1.5-1-2.7-1c-1.8,0-3,0.5-4.7,2.1v-0.6c0-0.9-0.5-1.4-1.4-1.4h-4.3v1.6h0.3c0.8,0,1.1,0.3,1.1,1.1v11.7H61.4L61.4,23.4z"
		/>
	<path class="st1" d="M82.8,20.4h-6.3l6-8.4V9h-9.4c-1.1,0-1.6,0.5-1.6,1.6v2.6h1.7v-0.3c0-0.7,0.3-1,1.1-1h3.2l-6.1,8.5v3h11.3
		V20.4L82.8,20.4z"/>
	<path class="st0" d="M119.1,14.8c0-8.5-6.3-14.8-14.8-14.8c-8.4,0-14.8,6.3-14.8,14.8c0,8.5,6.3,14.8,14.8,14.8
		C112.7,29.5,119.1,23.2,119.1,14.8L119.1,14.8z M116.6,14.8c0,7.2-5.2,12.4-12.3,12.4c-7.1,0-12.3-5.2-12.3-12.4
		c0-7.2,5.2-12.4,12.3-12.4C111.4,2.4,116.6,7.6,116.6,14.8L116.6,14.8z M100.3,23V8.6h-2.5c-1.2,0-1.7,0.5-1.7,1.7V23H100.3
		L100.3,23z M108.3,23h4.2V10.4c0-1.3-0.5-1.7-1.7-1.7h-2.5V23L108.3,23z M106.4,23V6.7c0-1.3-0.5-1.7-1.7-1.7h-3.8v1.8h0.2
		c0.9,0,1,0.2,1,1.2v15H106.4L106.4,23z"/>
</g>
</svg>
