<?xml version="1.0" encoding="utf-8"?>
<!-- Generator: Adobe Illustrator 19.2.1, SVG Export Plug-In . SVG Version: 6.00 Build 0)  -->
<svg version="1.1" id="Vrstva_1" xmlns="http://www.w3.org/2000/svg" xmlns:xlink="http://www.w3.org/1999/xlink" x="0px" y="0px"
	 viewBox="0 0 350 150" style="enable-background:new 0 0 350 150;" xml:space="preserve">
<style type="text/css">
	.st0{fill:#D71920;}
	.st1{fill:#FFFFFF;}
</style>
<rect x="41" y="39.6" class="st0" width="267.4" height="71.2"/>
<g>
	<path class="st1" d="M59.6,58.6c1-5.4,4.2-6.5,6.8-6.5c5.2,0,6.3,3,8.9,11.2l5,15.7h0.1l5-15.7c2.6-8.2,3.8-11.2,8.9-11.2
		c2.6,0,5.9,1.1,6.8,6.5l4.1,23.4c0.8,4.7,1.7,9.9,1.7,11.4c0,2.3-1.8,4.9-4.9,4.9c-4.7,0-5.5-3.3-6-6.8l-3.1-20.2h-0.1l-7,22.4
		c-1,3.3-2.6,4.7-5.7,4.7c-3.1,0-4.7-1.3-5.7-4.7l-7-22.4h-0.1l-3.1,20.2c-0.5,3.5-1.3,6.8-6,6.8c-3.1,0-4.9-2.6-4.9-4.9
		c0-1.5,0.9-6.7,1.7-11.4L59.6,58.6z"/>
	<path class="st1" d="M120.5,60.9c1.9-5,3.5-9.4,8.6-9.4c5.3,0,6.9,4.3,8.8,9.4l10,26.9c1.3,3.6,1.5,4.9,1.5,6.4c0,2.6-2,4.2-5,4.2
		c-3.4,0-4.5-2.2-5.4-5l-1.3-4.1h-17l-1.3,4.1c-1,2.9-2,5-5.4,5c-2.9,0-5-1.7-5-4.2c0-1.5,0.2-2.7,1.5-6.4L120.5,60.9z M129.4,63
		h-0.1l-5.6,16.7h10.9L129.4,63z"/>
	<path class="st1" d="M151.7,57.6c0-3.6,2.2-5.5,5.2-5.5c3,0,5.2,1.9,5.2,5.5v30.8h11.1c3.3,0,5.2,1.8,5.2,4.8
		c0,2.9-1.9,4.8-5.2,4.8h-16.3c-2.7,0-5.2-1.9-5.2-5.2V57.6z"/>
	<path class="st1" d="M180.3,57.6c0-3.6,2.2-5.5,5.2-5.5c3,0,5.2,1.9,5.2,5.5v30.8h11.1c3.3,0,5.2,1.8,5.2,4.8
		c0,2.9-1.9,4.8-5.2,4.8h-16.3c-2.7,0-5.2-1.9-5.2-5.2V57.6z"/>
	<path class="st1" d="M216.6,87.9c3,0,5.6,2.6,5.6,5.6c0,3.1-2.6,5.6-5.6,5.6c-3,0-5.6-2.5-5.6-5.6C211,90.4,213.6,87.9,216.6,87.9z
		"/>
	<path class="st1" d="M245,51.5c6.3,0,13.7,1.8,13.7,7.2c0,2.5-1.8,4.9-4.5,4.9c-2.4,0-5-2.2-9-2.2c-8.4,0-11.7,6.8-11.7,13.8
		c0,7.2,3.7,13.4,10.8,13.4c6.5,0,7.5-2.1,10.2-2.1c4.1,0,4.6,3.4,4.6,4.8c0,5.7-8.6,7.7-14.3,7.7c-14.3,0-22.4-10.7-22.4-23.8
		C222.4,61.4,231.3,51.5,245,51.5z"/>
	<path class="st1" d="M290.1,88.4c3.6,0,5.5,1.9,5.5,4.8c0,2.9-1.9,4.8-5.5,4.8h-22.9c-5.6,0-7.3-2.3-7.3-5.7c0-1.8,0.7-2.9,1.9-4.5
		l19.6-26.1h-15.3c-3.6,0-5.5-1.9-5.5-4.6c0-2.7,1.9-4.6,5.5-4.6h22.2c5.5,0,6.3,3.4,6.3,5.2c0,2.2-1.9,4.8-4.9,8.7l-16.5,22H290.1z
		"/>
</g>
</svg>
