<?xml version="1.0" encoding="utf-8"?>
<!-- Generator: Adobe Illustrator 19.2.1, SVG Export Plug-In . SVG Version: 6.00 Build 0)  -->
<svg version="1.1" id="Layer_1" xmlns="http://www.w3.org/2000/svg" xmlns:xlink="http://www.w3.org/1999/xlink" x="0px" y="0px"
	 viewBox="0 0 350 150" style="enable-background:new 0 0 350 150;" xml:space="preserve">
<style type="text/css">
	.st0{fill:#E00047;}
	.st1{fill:#1F1A17;}
</style>
<rect id="_130039608" x="52.4" y="31" class="st0" width="88.3" height="44"/>
<polygon id="_205769832" class="st1" points="52.4,119.1 140.7,119.1 140.7,75.1 121.9,75.1 121.9,79.1 71.1,79.2 71.1,75.1 
	52.4,75.1 "/>
<path class="st1" d="M171,53l21.7,0l0,1.1l-1.7,0c-1.8,0.1-2.9,1.2-2.9,3.6l0,14.2l26.7-15.4c1.9-1.1,1.4-2.5-0.4-2.5v-1l19.9,0l0,1
	c-2,0.2-3.8,0.5-5,1.3l-28.6,16l31.5,23.9c1.1,0.8,2.2,1.1,3.3,1.2v1.2l-19.9,0c-0.8-1-1.9-1.7-2.8-2.6l-24.7-19.5l0,17.3
	c0.1,2.4,1.1,3.7,3.1,3.7l1.5,0v1.1l-21.7,0v-1.1l1.3,0c2.1,0,3.3-1.2,3.4-3.7l0-34.9c-0.1-2.4-1.1-3.4-2.8-3.6l-1.9,0L171,53
	L171,53z"/>
<path class="st1" d="M284.6,73.8c7.8-1.7,12.2-4.6,12.1-10.8c-0.1-6.5-5.9-9.7-14.9-10l-40.1,0l0,1.1c2.8-0.1,4.2,1.5,4.3,3.6
	l0,34.9c-0.1,2.6-1.5,3.9-4.3,3.7l0,1.1l36.1,0c15.5-0.1,21.2-5.1,21.6-12.8C299.5,76.9,293.2,74.4,284.6,73.8z M258.5,58.6l17.4,0
	c6.7,0,9.5,4,8.7,7.1c-0.8,3.3-5.5,5.6-13.2,5.6l-12.8,0L258.5,58.6L258.5,58.6z M274.9,91.9l-13.9,0c-1.6-0.3-2.6-1.5-2.6-3l0-11.7
	l0,0v0v0c5.7-0.1,11.4-0.2,17.1-0.1C285.9,76.2,290.2,91.3,274.9,91.9z"/>
</svg>
