<?xml version="1.0" encoding="utf-8"?>
<!-- Generator: Adobe Illustrator 19.2.1, SVG Export Plug-In . SVG Version: 6.00 Build 0)  -->
<svg version="1.1" id="svg2" xmlns:svg="http://www.w3.org/2000/svg"
	 xmlns="http://www.w3.org/2000/svg" xmlns:xlink="http://www.w3.org/1999/xlink" x="0px" y="0px" viewBox="0 0 350 150"
	 style="enable-background:new 0 0 350 150;" xml:space="preserve">
<style type="text/css">
	.st0{fill:#0452A7;}
</style>
<g id="g11" transform="matrix(1.25,0,0,-1.25,-67.3575,93.80875)">
	<g id="g37">
	</g>
	<path id="path55" class="st0" d="M138.8,8.9h4.8c4.6,0,8.4,3.8,8.4,8.4v11.4c0,4.6-3.8,8.3-8.4,8.3h-38.2V-6.9h11v35.6h23.3
		c0.7,0,1.3-0.6,1.3-1.3V16.8c0-0.7-0.6-1.3-1.3-1.3h-19.1c-0.5,0-0.9-0.4-0.9-0.9c0-0.2,0.1-0.5,0.3-0.6l20.9-20.9h13.8L138.8,8.9z
		 M220.8,37L210.5,5.8L200.3,37h-11.4L178.6,5.8L168.3,37h-11.4l16-43.9h11.4l10.3,31.3l10.3-31.3h11.4l16,43.9H220.8z M282.4,1.4
		v-8.4h-43.9V37h42.6v-8.3h-31.6v-9h22v-8.4h-22V1.4"/>
</g>
</svg>
