<?xml version="1.0" encoding="utf-8"?>
<!-- Generator: Adobe Illustrator 19.2.1, SVG Export Plug-In . SVG Version: 6.00 Build 0)  -->
<svg version="1.1" id="Logo" xmlns="http://www.w3.org/2000/svg" xmlns:xlink="http://www.w3.org/1999/xlink" x="0px" y="0px"
	 viewBox="0 0 350 150" style="enable-background:new 0 0 350 150;" xml:space="preserve">
<style type="text/css">
	.st0{fill:url(#SVGID_1_);}
	.st1{fill:url(#SVGID_2_);}
	.st2{fill:url(#SVGID_3_);}
	.st3{fill:url(#SVGID_4_);}
	.st4{fill:#FFFFFF;}
	.st5{fill:none;}
	.st6{fill:#39B54A;}
	.st7{fill:#231F20;}
</style>
<g>
	<g>
		<g>
			<linearGradient id="SVGID_1_" gradientUnits="userSpaceOnUse" x1="45.7678" y1="55.3352" x2="85.8074" y2="95.3747">
				<stop  offset="0" style="stop-color:#414042"/>
				<stop  offset="1" style="stop-color:#000000"/>
			</linearGradient>
			<circle class="st0" cx="65.8" cy="75.4" r="28.3"/>
			<linearGradient id="SVGID_2_" gradientUnits="userSpaceOnUse" x1="41.4755" y1="61.3181" x2="90.1002" y2="89.3916">
				<stop  offset="0" style="stop-color:#FFFFFF"/>
				<stop  offset="0.1104" style="stop-color:#FFFFFF"/>
				<stop  offset="0.3681" style="stop-color:#58595B"/>
				<stop  offset="0.5276" style="stop-color:#414042"/>
				<stop  offset="0.7055" style="stop-color:#414042"/>
				<stop  offset="0.865" style="stop-color:#58595B"/>
				<stop  offset="1" style="stop-color:#FFFFFF"/>
			</linearGradient>
			<circle class="st1" cx="65.8" cy="75.4" r="28.1"/>
			<linearGradient id="SVGID_3_" gradientUnits="userSpaceOnUse" x1="72.4297" y1="50.5661" x2="59.1455" y2="100.1434">
				<stop  offset="0" style="stop-color:#414042"/>
				<stop  offset="1" style="stop-color:#939598"/>
			</linearGradient>
			<circle class="st2" cx="65.8" cy="75.4" r="25.7"/>
			<linearGradient id="SVGID_4_" gradientUnits="userSpaceOnUse" x1="59.2004" y1="99.9369" x2="72.3742" y2="50.7714">
				<stop  offset="0" style="stop-color:#414042"/>
				<stop  offset="1" style="stop-color:#000000"/>
			</linearGradient>
			<circle class="st3" cx="65.8" cy="75.4" r="25.4"/>
			<circle class="st4" cx="65.8" cy="75.4" r="23.4"/>
			<g>
				<g>
					<defs>
						<path id="SVGID_5_" d="M83.6,86.5c-1.7-1.6-3.9-2.7-6.3-3.1c-0.3-0.1-0.7,0.2-0.7,0.6c0,0.3,0,0.6,0,0.9
							c0,0.3-0.2,0.6-0.5,0.6c-0.2,0-0.4,0-0.6,0c-0.7,0-0.8-0.8-0.7-1.3c1.4-5.1,1.8-8.2,1.8-10.5c0-2.4-0.1-4.8-1.2-8
							c-1-3-2-6-7-10.6c-0.3-0.3-0.7-0.5-1.1-0.5c-0.5,0-0.9-0.1-1.4-0.1c-2.1,0-4.1,0.3-6,0.9c-0.7,0.2-0.6,0.7-0.2,1
							c1.9,1.6,4.5,4.1,6.3,7.1c-1.1,0.1-2-0.5-2.7-1.2c-2.4-2.2-4.8-3.8-6.8-5c-0.3-0.2-0.7-0.3-1-0.1c-2,1.2-3.8,2.7-5.3,4.4
							c-0.3,0.3-0.1,0.6,0.2,0.8c1.9,1,4.8,2.9,7.5,5.3c-0.6,0.5-1.4,0.3-2.7-0.4c-2.4-1.3-4.8-2-6.5-2.5c-0.4-0.1-0.8,0-1,0.3
							c-1.1,2-1.9,4.4-2.3,6.8c-0.1,0.5,0.2,0.9,0.7,0.9c4.2,0.7,11.6,2.7,12.8,11.2c0.1,0.7-0.6,1.4-1.5,1
							c-1.2-0.6-2.5-1.2-3.7-1.8c-0.1-0.1-0.3-0.1-0.4-0.1c-2,0-3.9,0-5.9,0c-0.8,0-1.2,0.8-0.6,1.4c1.4,1.6,2.7,3.4,3.8,5.3
							c0.1,0.2,0.2,0.2,0.4,0.2c0.9,0,1.7,0,2.6,0c0.2,0,0.3,0,0.5-0.1c0.8-0.5,1.6-0.9,2.4-1.4c0.2-0.1,0.3-0.1,0.5-0.1
							c6.2,0,12.8,0,19.4,0c0.3,0,0.5,0.2,0.5,0.4c0,0.3,0,0.6,0,1c0,0.3,0.3,0.6,0.7,0.6c2.4-0.4,4.6-1.5,6.3-3.1
							C83.8,87.2,83.8,86.8,83.6,86.5z"/>
					</defs>
					<clipPath id="SVGID_6_">
						<use xlink:href="#SVGID_5_"  style="overflow:visible;"/>
					</clipPath>
					<g style="clip-path:url(#SVGID_6_);">
						
							<image style="overflow:visible;" width="54" height="54" xlink:href="FD8DF356D825F1A.png"  transform="matrix(1 0 0 1 37.322 45.9602)">
						</image>
					</g>
					<g style="clip-path:url(#SVGID_6_);">
						
							<image style="overflow:visible;" width="28" height="4" xlink:href="FD8DF356D825F1E.png"  transform="matrix(1 0 0 1 49.322 86.9602)">
						</image>
					</g>
					<g style="clip-path:url(#SVGID_6_);">
						
							<image style="overflow:visible;" width="21" height="18" xlink:href="FD8DF356D825F19.png"  transform="matrix(1 0 0 1 43.322 68.9602)">
						</image>
					</g>
				</g>
				<g>
					<defs>
						<path id="SVGID_7_" d="M77.4,87c0.3,0,0.5,0.1,0.8,0.1c0.6,0,1.3,0,1.9,0c0.3-0.3,0.6-0.6,0.9-0.9c0.3-0.3,0.7-0.6,1-0.8
							c-1.5-1-3.1-1.7-4.9-1.9c-0.3-0.1-0.7,0.2-0.7,0.6c0,0.3,0,0.6,0,0.9c0,0.3-0.2,0.6-0.5,0.6c-0.1,0-0.3,0-0.4,0v1.5l0,0
							C76.3,86.9,76.8,87,77.4,87z"/>
					</defs>
					<clipPath id="SVGID_8_">
						<use xlink:href="#SVGID_7_"  style="overflow:visible;"/>
					</clipPath>
					<g style="clip-path:url(#SVGID_8_);">
						
							<image style="overflow:visible;" width="6" height="5" xlink:href="FD8DF356D825F1B.png"  transform="matrix(1 0 0 1 75.322 81.9602)">
						</image>
					</g>
				</g>
				<path class="st5" d="M83.6,86.5c-1.7-1.6-3.9-2.7-6.3-3.1c-0.3-0.1-0.7,0.2-0.7,0.6c0,0.3,0,0.6,0,0.9c0,0.3-0.2,0.6-0.5,0.6
					c-0.2,0-0.4,0-0.6,0c-0.7,0-0.8-0.8-0.7-1.3c1.4-5.1,1.8-8.2,1.8-10.5c0-2.4-0.1-4.8-1.2-8c-1-3-2-6-7-10.6
					c-0.3-0.3-0.7-0.5-1.1-0.5c-0.5,0-0.9-0.1-1.4-0.1c-2.1,0-4.1,0.3-6,0.9c-0.7,0.2-0.6,0.7-0.2,1c1.9,1.6,4.5,4.1,6.3,7.1
					c-1.1,0.1-2-0.5-2.7-1.2c-2.4-2.3-4.8-3.9-6.8-5c-0.3-0.2-0.7-0.3-1-0.1c-2.2,1.3-3.6,2.4-5.3,4.4c-0.3,0.3-0.1,0.6,0.2,0.8
					c1.9,1,4.8,2.9,7.5,5.3c-0.6,0.5-1.4,0.3-2.7-0.4c-2.4-1.3-4.8-2-6.5-2.5c-0.4-0.1-0.8,0-1,0.3c-1.1,2-1.9,4.4-2.3,6.8
					c-0.1,0.5,0.2,0.9,0.7,0.9c4.2,0.7,11.6,2.7,12.8,11.2c0.1,0.7-0.6,1.4-1.5,1c-1.2-0.6-2.5-1.2-3.7-1.8
					c-0.1-0.1-0.3-0.1-0.4-0.1c-2,0-3.9,0-5.9,0c-0.8,0-1.2,0.8-0.6,1.4c1.4,1.6,2.7,3.4,3.8,5.3c0.1,0.2,0.2,0.2,0.4,0.2
					c0.9,0,1.7,0,2.6,0c0.2,0,0.3,0,0.5-0.1c0.8-0.5,1.6-0.9,2.4-1.4c0.2-0.1,0.3-0.1,0.5-0.1c6.2,0,12.8,0,19.4,0
					c0.3,0,0.5,0.2,0.5,0.4c0,0.3,0,0.6,0,1c0,0.3,0.3,0.6,0.7,0.6c2.4-0.4,4.6-1.5,6.3-3.1C83.8,87.2,83.8,86.8,83.6,86.5z"/>
			</g>
			<path class="st6" d="M81.8,87c-1.3-1.1-2.7-1.8-4.4-2.1c-0.2,0-0.2,0-0.2,0.2c0,0,0,0.1,0,0.1c0,0.4-0.4,0.9-0.8,0.9
				c-0.4,0-0.7,0-1.1,0c-0.9,0-1.7-0.8-1.4-2c3.9-14-0.5-22.7-6-27.6c-1.5-1.3-1.6-1.4-3.1-1.3c-1.2,0-2.6,0.2-3.7,0.5
				c-0.2,0.1-0.4,0.2-0.1,0.5c2.9,2.4,6.7,6.5,8.5,13c0.1,0.2-0.1,0.2-0.2,0.2c-1.6,0.1-2.2-0.9-2.7-1.5c-3.7-4.6-7.8-7.4-11-9.3
				c-0.3-0.2-0.4-0.2-0.6,0c-1.3,0.7-2.7,1.9-3.6,2.9c-0.2,0.2-0.2,0.3,0.1,0.4c2.8,1.5,7.1,4.5,11.1,9.5c0.2,0.3,0.3,0.5,0.1,0.5
				c-0.8,0.5-2,0.4-3.4-0.4c-3.8-2.4-7.6-4-10.6-4.9c-0.3-0.1-0.4-0.1-0.5,0.2c-0.7,1.5-1.5,3.5-1.8,5.3c0,0.2-0.1,0.2,0.2,0.3
				c8.3,1.7,12.8,6.2,13.3,12.3c0.1,1.1-1.1,2.1-2.3,1.7c-1.3-0.4-2.5-0.9-3.8-1.3c-0.1,0-0.3-0.1-0.4-0.1c-1.8,0-3.6,0-5.3,0
				c-0.2,0-0.4,0.1-0.1,0.4c1.3,1.7,2.1,2.7,3.1,4.3c0.1,0.2,0.2,0.2,0.4,0.2c0.7,0,1.3,0,2,0c0.3,0,0.5-0.1,0.7-0.2
				c0.7-0.4,1.4-0.8,2.1-1.2c0.2-0.1,0.4-0.2,0.7-0.2c6.5,0,13.4,0,19.9,0c0.4,0,0.8,0.5,0.8,0.9c0,0,0,0.1,0,0.1
				c0,0.2,0.1,0.2,0.2,0.2c1.7-0.3,3.1-1.2,4.4-2.2C81.9,87.2,81.9,87.1,81.8,87z M69.1,83.8c-1.9,0-3.4-1.5-3.4-3.5
				c0-1.9,1.5-3.4,3.4-3.4c1.9,0,3.4,1.5,3.4,3.4C72.6,82.2,71.1,83.8,69.1,83.8z"/>
			<g>
				<g>
					<g>
						<defs>
							<circle id="SVGID_9_" cx="68.9" cy="80.5" r="3.9"/>
						</defs>
						<use xlink:href="#SVGID_9_"  style="overflow:visible;fill:#FFFFFF;"/>
						<clipPath id="SVGID_10_">
							<use xlink:href="#SVGID_9_"  style="overflow:visible;"/>
						</clipPath>
						<g style="clip-path:url(#SVGID_10_);">
							
								<image style="overflow:visible;" width="12" height="12" xlink:href="FD8DF356D825F18.png"  transform="matrix(1 0 0 1 63.322 74.9602)">
							</image>
						</g>
					</g>
				</g>
				<g>
					<circle class="st4" cx="69.6" cy="80.4" r="2.6"/>
					<path class="st4" d="M69.6,83c-1.4,0-2.6-1.2-2.6-2.6c0-1.4,1.2-2.6,2.6-2.6c1.4,0,2.6,1.2,2.6,2.6C72.2,81.8,71,83,69.6,83z
						 M69.6,77.8c-1.4,0-2.6,1.2-2.6,2.6c0,1.4,1.2,2.6,2.6,2.6c1.4,0,2.6-1.2,2.6-2.6C72.2,78.9,71,77.8,69.6,77.8z"/>
				</g>
			</g>
		</g>
		<g>
			<path class="st7" d="M113.5,89.6c4.2,0.2,11,0.4,14.9,0.4c17.2,0,19.2,0,19.2-9.4c0-7.4-2.2-7.9-11.2-8.2l-10.5-0.3
				c-4.8-0.2-4.9-0.7-4.9-2.8c0-2.2,0.6-2.2,12.2-2.2c2.2,0,9.2,0.1,12.9,0.2c0.4,0,0.6-0.2,0.6-0.6v-4.8c0-0.4-0.2-0.6-0.6-0.6
				c-3.7-0.2-9.6-0.4-13.9-0.4c-16.8,0-19.5,0.3-19.5,9c0,7.4,1.6,8.4,12.4,8.8l9.7,0.3c4.5,0.2,4.6,0.7,4.6,2.4
				c0,2.3-0.2,2.4-10.9,2.4c-5,0-10.1-0.2-14.8-0.4c-0.4,0-0.6,0.2-0.6,0.6v5C113,89.3,113.2,89.5,113.5,89.6 M295.1,79.1h-12.6
				l5.8-11.5h1L295.1,79.1z M258.3,75.2v0.4c0,7.3-0.6,7.5-10,7.5h-7.8V67.6h7.8C257.7,67.6,258.3,67.9,258.3,75.2 M217.5,75.2v0.4
				c0,7.9-0.3,8.1-9.6,8.1c-9.3,0-9.6-0.1-9.6-8.1v-0.4c0-7.9,0.3-8.1,9.6-8.1C217.1,67.1,217.5,67.2,217.5,75.2 M309,88.8
				l-13.6-27.2c-0.1-0.3-0.4-0.4-0.7-0.4h-12c-0.3,0-0.6,0.1-0.7,0.4l-13.6,27.2c-0.2,0.4,0,0.7,0.4,0.7h7.8c0.3,0,0.6-0.1,0.7-0.4
				l2-4H298l2,4c0.1,0.3,0.4,0.4,0.7,0.4h7.8C309.1,89.5,309.2,89.2,309,88.8 M248.2,61.2h-15.7c-0.4,0-0.6,0.2-0.6,0.6v27.1
				c0,0.4,0.2,0.6,0.6,0.6h15.7c16.8,0,19-0.8,19-14v-0.2C267.2,62,265,61.2,248.2,61.2 M187.5,88.8l-15.7-15.3l14.7-11.6
				c0.4-0.3,0.3-0.7-0.3-0.7h-9.6c-0.3,0-0.5,0.1-0.7,0.3l-15,12V61.8c0-0.4-0.2-0.6-0.6-0.6H153c-0.4,0-0.6,0.2-0.6,0.6v27.1
				c0,0.4,0.2,0.6,0.6,0.6h7.3c0.4,0,0.6-0.2,0.6-0.6v-6.8l4.4-3.5l10.8,10.6c0.2,0.2,0.4,0.3,0.7,0.3h10.3
				C187.7,89.5,187.9,89.2,187.5,88.8 M189.1,75.2v0.4c0,13.7,2.2,14.6,18.7,14.6c16.5,0,18.7-0.8,18.7-14.6v-0.4
				c0-13.7-2.2-14.6-18.7-14.6C191.4,60.6,189.1,61.4,189.1,75.2 M122.8,54.6l3.6,4.1c0.2,0.2,0.4,0.3,0.7,0.3h7.5
				c0.3,0,0.5-0.1,0.7-0.3l3.6-4.1c0.3-0.4,0.2-0.7-0.3-0.7h-5.1c-0.3,0-0.5,0.1-0.7,0.4l-1.5,2.2h-0.8l-1.5-2.2
				c-0.2-0.2-0.4-0.4-0.7-0.4h-5C122.6,53.9,122.5,54.3,122.8,54.6"/>
		</g>
	</g>
</g>
</svg>
