<?xml version="1.0" encoding="utf-8"?>
<!-- Generator: Adobe Illustrator 19.2.1, SVG Export Plug-In . SVG Version: 6.00 Build 0)  -->
<svg version="1.1" id="CMYK_color_CZ" xmlns="http://www.w3.org/2000/svg" xmlns:xlink="http://www.w3.org/1999/xlink" x="0px"
	 y="0px" viewBox="0 0 350 150" style="enable-background:new 0 0 350 150;" xml:space="preserve">
<style type="text/css">
	.st0{fill:#9D9FA2;}
	.st1{fill:#F47D20;}
	.st2{fill:#ED1A37;}
	.st3{fill:#46A440;}
	.st4{fill:#0087C9;}
	.st5{fill:#FFCB05;}
</style>
<g>
	<g>
		<g>
			<path class="st0" d="M172.3,125.9c1.8,0,2.6,0.1,3.3,0.4c1.2,0.6,1.8,1.7,1.8,3.2c0,2.3-1.6,3.6-4.4,3.6h-1.4v4.7h-3v-11.9H172.3
				z M172.7,130.9c1.1,0,1.7-0.5,1.7-1.4c0-1-0.5-1.4-1.7-1.4h-1.1v2.8H172.7z"/>
			<path class="st0" d="M182.2,125.9c1.4,0,2.2,0.1,2.8,0.4c1.2,0.5,1.8,1.6,1.8,3c0,1.6-0.7,2.6-2.1,3l2.6,5.6h-3.2l-2.3-5.1
				l-0.1,0h-0.3h-0.3l-0.1,0v5.1h-3v-11.9H182.2z M182.2,130.5c1.1,0,1.6-0.4,1.6-1.2c0-0.9-0.5-1.2-1.8-1.2h-0.9v2.4H182.2z"/>
			<path class="st0" d="M190.2,137.8h-2.9l3.3-11.9h3.7l3.2,11.9h-3l-0.7-2.8h-3L190.2,137.8z M193.4,132.9l-0.7-3.3
				c-0.2-0.9-0.2-1.2-0.3-1.8c-0.1,0.5-0.2,1.1-0.3,1.8l-0.7,3.3H193.4z"/>
			<polygon class="st0" points="201.2,137.8 198.2,137.8 198.2,125.9 201.2,125.9 201.2,130.5 204.4,130.5 204.4,125.9 207.4,125.9 
				207.4,137.8 204.4,137.8 204.4,132.6 201.2,132.6 			"/>
			<path class="st0" d="M210.7,137.8h-2.9l3.3-11.9h3.7l3.2,11.9h-3l-0.7-2.8h-3L210.7,137.8z M213.9,132.9l-0.7-3.3
				c-0.2-0.9-0.2-1.2-0.3-1.8c-0.1,0.5-0.2,1.1-0.3,1.8l-0.7,3.3H213.9z"/>
		</g>
		<g>
			<polygon points="144,125.9 144,127.8 139.1,135.6 144,135.6 144,137.8 135.7,137.8 135.7,135.8 140.6,128.1 135.9,128.1 
				135.9,125.9 			"/>
			<path d="M153.8,127.5c0.8,1.1,1.1,2.5,1.1,4.3c0,1.8-0.4,3.3-1.2,4.5c-0.8,1.2-2.1,1.8-3.9,1.8c-1.7,0-2.8-0.5-3.7-1.6
				c-0.9-1.2-1.4-2.6-1.4-4.5c0-1.7,0.4-3.3,1.1-4.3c0.8-1.3,2.2-2,4-2C151.7,125.6,152.9,126.2,153.8,127.5 M147.9,131.8
				c0,1.6,0.1,2.3,0.3,3c0.2,0.7,0.8,1.1,1.5,1.1c1.4,0,1.9-1.1,1.9-4.2c0-1.5-0.1-2.4-0.3-3c-0.2-0.7-0.8-1.1-1.5-1.1
				C148.5,127.7,147.9,128.9,147.9,131.8"/>
			<path d="M164.7,127.5c0.8,1.1,1.1,2.5,1.1,4.3c0,1.8-0.4,3.3-1.2,4.5c-0.8,1.2-2.1,1.8-3.9,1.8c-1.7,0-2.8-0.5-3.7-1.6
				c-0.9-1.2-1.4-2.6-1.4-4.5c0-1.7,0.4-3.3,1.1-4.3c0.8-1.3,2.2-2,4-2C162.6,125.6,163.8,126.2,164.7,127.5 M158.9,131.8
				c0,1.6,0.1,2.3,0.3,3c0.2,0.7,0.8,1.1,1.5,1.1c1.4,0,1.9-1.1,1.9-4.2c0-1.5-0.1-2.4-0.3-3c-0.2-0.7-0.8-1.1-1.5-1.1
				C159.4,127.7,158.9,128.9,158.9,131.8"/>
		</g>
	</g>
	<g>
		<path class="st1" d="M195.3,79.7c1.3-0.2,2.4,1.4,2.4,1.4c1.1,1.2,2.5,6.7,2.3,15.6c-0.2,8.9-12.4,16.5-16.3,16.5
			c-1.6,0-5.7-0.6-12.1-11.4c-6.5-10.8,3-24.8,4-26.2c1-1.5,2.1-1.6,3-1.4c1.2,0.2,2.6,3.2,3.4,4.4c1.4,2.1-1.8,6-2.8,7.4
			c-1,1.4-0.4,3.4-0.3,4.2c0.1,0.6,0.4,1.2,1.6,3.1c1.1,1.9,2.4,4,3.1,5c0.7,1,4.4-1.1,5.5-2.1c1.1-1.1,0,0,1.8-1.8
			c1.8-1.7,2.1-2.8,1.9-3.9c-0.1-1.1-0.2-2.2-1-3.8c-0.9-1.6-1.5-3.6-0.8-4.8C190.7,82,191.6,80.3,195.3,79.7"/>
		<path class="st2" d="M195.2,13.8c2.1,5.5,4.1,6.8,6.3,12.3c1.5,3.6,3.5,6.3,6.1,9.1c1.3,1.4,2.4,6.8,2.5,6.6
			c-0.7,0.9-8.7-8.5-9.6-9.7c-0.9-1.3-8.5-7.7-10.4-4.2c-2.6,5-4.8,9.9-8.1,15.4c-0.7,1.1-1,2.6-1.4,3.7c-0.5,1.7-2.1,2.3-3,3.7
			c0,0-4.2,5.6-3.5,3.8c0.8-2.4,0.8-3.6,0.8-3.6c0.1-1.5,0-4.1,0.4-5.4c1.6-5.7,6.1-10.8,7.1-16.8c0.3-1.9,1.2-5.3-1.8-5.6
			c-2.7-0.2-5.5-0.5-8.2-0.6c-3.2-0.2-5,1.7-8,0.7c-2.1-0.6-5.4-0.2-7.2-1.3c0.1,0.1,3.4-0.9,3.9-1.1c1.8-0.8,3.5-2.1,5.6-2
			c3.3,0.1,5.4-0.6,8.7-1.3C178.4,16.9,193.9,9.2,195.2,13.8"/>
		<path class="st3" d="M150.7,59.5c0,0,6,1.3,8.7,3.9c2.7,2.6,12.6-0.4,9.1-7.9c-3.5-7.5-5.7-8.7-4.8-11.8c0,0,2.2-7.8,5.5-9.3
			c3.2-1.5,2.1-5.9-0.1-6.1c-2.2-0.2-4,1-4.2,3.7c-0.2,2.7-1.5,6.8-3.9,7.7c-2.3,0.9-3.5,1-5.2-2.8c-1.7-3.8-4.1-6.3-3.1-8.8
			c1-2.5-3.4-5.7-5.7-4.2c-3.3,2.3-2.1,4.5,0.2,6.1c2.4,1.6,7.1,8.3,6.5,10.7c-0.6,2.4-1.7,4.4-4,3.3c-2.3-1.2-5.5-2.2-6.2-3.8
			c-0.7-1.6-0.9-3.6-3.8-2.7c-2.9,1-4,4.1,0.5,5.5c4.5,1.3,9.1,2.9,9.3,7.1c0.3,4.1-1.1,6.4-6.4,6.5c-5.3,0.1-7.6-3.8-8.7,1.5
			c-1.1,5.3,4.4,3.3,8.2,2.1C146.6,58.8,150.7,59.5,150.7,59.5"/>
		<path class="st4" d="M200.3,73.9c0,0,1.8-0.9,7.1-0.6c5.2,0.3,7.3-1.2,9.1-2c1.8-0.8,1.7-1,0.4-1.1c-1.3-0.1-7.5-1.7-9.3-1.3
			c-1.8,0.4-7.8-3.5-5.4-2.8c4.5,1.2,6.2,1.3,11.4-0.7c5.2-2,12.7-4.4,12.6-5.5c-0.1-1.2-4.7,0.2-8.2,0c-3.5-0.2-6.5,0.8-8,0.6
			c-1.5-0.2-0.5-1.8,0.9-1.9c1.4,0,5.5-0.8,7.9-2.7c2.5-1.9,4.3-3,4.9-3.7c0.6-0.7,0-0.5-2-0.4c-2.1,0.1-9.2,1.3-12.2,2.5
			c-3,1.2-6.9,0.4-4.6-0.8c2.3-1.2,7.9-2.8,9.9-4.9c2.1-2.1,3-1.9,2.1-2.1c-0.9-0.2-3.3,0.4-5.2,0.5c-1.9,0.1-11.1,2.5-15,7.2
			c-3.9,4.7-2.9,0.7-2.2-1.2c0.6-1.9,0.3-2.9,0.9-6.5c0.6-3.7,2.1-3.6,2.2-5.2c0.1-1.7-1.5,0.7-4.8,2.3c-3.3,1.6-5.7,6.7-7.7,12.5
			c-2,5.8-2.6,4.6-2.5,7.4c0.1,2.4-1.5,3.9,1,7.1C186,73.8,193.7,75.2,200.3,73.9"/>
		<path class="st5" d="M163.2,79.6c-1.8-2.5-0.5-2-3-6c-1.9-3-1.3-4.9-3.5-6.2c-3-1.9-5.2,1.3-6.3,3c-1.1,1.7-1.8,3.8-3.6,6.6
			c-1.8,2.8-1.8,3.8-0.4,5.1c1.3,1.3,1.5,1.5,1.6,3.9c0,2.4,1.7,4.1,5.8,3.6c4-0.5,7.1,0.3,7.1,0.3c1,0.2,4.5,0.3,5.2-3.3
			C166.5,83.1,165,82,163.2,79.6z M150.7,94c-2.4,1.6-1.8,4.8-1,6.3c0.8,1.4,3.2,0.9,3.2,0.9c0.7-0.1,2.6-0.6,3.9-2.2
			c1.2-1.6,1.9-4.8,0.5-6.4C156,91.1,153.1,92.4,150.7,94z M141.4,90.3c-2.8,1.7-3.7,5.5-2.5,7.6c1.2,2.1,5.8-0.1,5.8-0.1
			c3.8-1.8,4.5-4.4,3.1-6.9C146.4,88.5,144.2,88.6,141.4,90.3z M142.2,81.7c-2.5-3.7-6.7-0.7-8,0.6c-1.2,1.4-2.8,4.2-1.4,6.5
			c1.4,2.3,5,1.2,5,1.2C141.1,89.1,144.7,85.4,142.2,81.7z M138.4,77.4c1.7,1,5.1-0.9,5.1-0.9c1.5-0.9,4.1-3.4,3.6-5.7
			c-0.5-2.4-2.1-2.7-3.3-2.7c-1.3,0-5.8,1.4-6.8,4.1C136,74.9,136.7,76.4,138.4,77.4z"/>
	</g>
</g>
</svg>
