<?xml version="1.0" encoding="utf-8"?>
<!-- Generator: Adobe Illustrator 19.2.1, SVG Export Plug-In . SVG Version: 6.00 Build 0)  -->
<svg version="1.1" id="Layer_1" xmlns="http://www.w3.org/2000/svg" xmlns:xlink="http://www.w3.org/1999/xlink" x="0px" y="0px"
	 viewBox="0 0 90 47.2" style="enable-background:new 0 0 90 47.2;" xml:space="preserve">
<style type="text/css">
	.st0{fill:#FFFFFF;}
	.st1{fill:#ED1C24;}
	.st2{fill:none;stroke:#FFFFFF;stroke-width:0.273;stroke-miterlimit:10;}
</style>
<g>
	<path class="st0" d="M11.2,3.2C11.7,1.4,13.6,0,15.4,0h72c1.8,0,2.9,1.4,2.4,3.2L78.7,44c-0.5,1.8-2.4,3.2-4.2,3.2h-72
		c-1.8,0-2.9-1.4-2.4-3.2L11.2,3.2z"/>
	<path class="st1" d="M13.5,3.4c0.2-0.6,0.9-1.2,1.5-1.2h20.2c0.7,0,1.1,0.5,0.9,1.2L25.3,43.8c-0.2,0.6-0.9,1.2-1.5,1.2H3.5
		c-0.7,0-1.1-0.5-0.9-1.2L13.5,3.4z"/>
	<path class="st1" d="M38.9,3.4c0.2-0.6,0.9-1.2,1.5-1.2h20.2c0.7,0,1.1,0.5,0.9,1.2L50.7,43.8c-0.2,0.6-0.9,1.2-1.5,1.2H29
		c-0.7,0-1.1-0.5-0.9-1.2L38.9,3.4z"/>
	<path class="st1" d="M64.5,3.4c0.2-0.6,0.9-1.2,1.5-1.2h20.2c0.7,0,1.1,0.5,0.9,1.2L76.3,43.8c-0.2,0.6-0.9,1.2-1.5,1.2H54.5
		c-0.7,0-1.1-0.5-0.9-1.2L64.5,3.4z"/>
	<path class="st0" d="M15.2,27c-0.1,0.1,0,0.2,0.1,0.2h5.6c0.1,0,0.2-0.1,0.2-0.2l-0.6-8.7c0-0.1,0-0.3,0-0.4l0-1.3
		c0-0.1,0-0.1-0.1,0l-0.6,1.4c0,0.1-0.1,0.3-0.2,0.4L15.2,27z M18.9,13.1C19,13,19.2,13,19.3,13h4c0.1,0,0.2,0.1,0.2,0.2l1.8,20.9
		c0,0.1-0.1,0.2-0.2,0.2h-3.4c-0.1,0-0.2-0.1-0.2-0.2l-0.3-3.7c0-0.1-0.1-0.2-0.2-0.2h-7c-0.1,0-0.3,0.1-0.3,0.2l-2,3.8
		c-0.1,0.1-0.2,0.2-0.3,0.2H7.8c-0.1,0-0.2-0.1-0.1-0.2L18.9,13.1z"/>
	<path class="st2" d="M15.2,27c-0.1,0.1,0,0.2,0.1,0.2h5.6c0.1,0,0.2-0.1,0.2-0.2l-0.6-8.7c0-0.1,0-0.3,0-0.4l0-1.3
		c0-0.1,0-0.1-0.1,0l-0.6,1.4c0,0.1-0.1,0.3-0.2,0.4L15.2,27z M18.9,13.1C19,13,19.2,13,19.3,13h4c0.1,0,0.2,0.1,0.2,0.2l1.8,20.9
		c0,0.1-0.1,0.2-0.2,0.2h-3.4c-0.1,0-0.2-0.1-0.2-0.2l-0.3-3.7c0-0.1-0.1-0.2-0.2-0.2h-7c-0.1,0-0.3,0.1-0.3,0.2l-2,3.8
		c-0.1,0.1-0.2,0.2-0.3,0.2H7.8c-0.1,0-0.2-0.1-0.1-0.2L18.9,13.1z"/>
	<path class="st0" d="M44.7,34.1c-0.1,0.1-0.2,0.2-0.3,0.2H41c-0.1,0-0.2-0.1-0.2-0.2l-2-20.9c0-0.1,0.1-0.2,0.2-0.2h3.4
		c0.1,0,0.2,0.1,0.2,0.2l1,14.2c0,0.1,0,0.3,0,0.4l0,1.9c0,0.1,0,0.1,0.1,0l0.8-1.9c0-0.1,0.1-0.3,0.2-0.4l7.5-14.3
		c0.1-0.1,0.2-0.2,0.3-0.2h3.6c0.1,0,0.2,0.1,0.1,0.2L44.7,34.1z"/>
	<path class="st2" d="M44.7,34.1c-0.1,0.1-0.2,0.2-0.3,0.2H41c-0.1,0-0.2-0.1-0.2-0.2l-2-20.9c0-0.1,0.1-0.2,0.2-0.2h3.4
		c0.1,0,0.2,0.1,0.2,0.2l1,14.2c0,0.1,0,0.3,0,0.4l0,1.9c0,0.1,0,0.1,0.1,0l0.8-1.9c0-0.1,0.1-0.3,0.2-0.4l7.5-14.3
		c0.1-0.1,0.2-0.2,0.3-0.2h3.6c0.1,0,0.2,0.1,0.1,0.2L44.7,34.1z"/>
	<path class="st0" d="M80.6,12.9c0.1,0,0.2,0.1,0.2,0.2l-0.7,2.5c0,0.1-0.2,0.2-0.3,0.2h-9.7c-0.1,0-0.2,0.1-0.3,0.2l-1.6,5.8
		c0,0.1,0,0.2,0.2,0.2h8.1c0.1,0,0.2,0.1,0.2,0.2L76,24.6c0,0.1-0.2,0.2-0.3,0.2h-8.1c-0.1,0-0.2,0.1-0.3,0.2l-1.6,6
		c0,0.1,0,0.2,0.2,0.2h9.7c0.1,0,0.2,0.1,0.2,0.2l-0.7,2.5c0,0.1-0.2,0.2-0.3,0.2H61.2C61,34.1,61,34,61,33.9l5.7-20.8
		c0-0.1,0.2-0.2,0.3-0.2H80.6z"/>
	<path class="st2" d="M80.6,12.9c0.1,0,0.2,0.1,0.2,0.2l-0.7,2.5c0,0.1-0.2,0.2-0.3,0.2h-9.7c-0.1,0-0.2,0.1-0.3,0.2l-1.6,5.8
		c0,0.1,0,0.2,0.2,0.2h8.1c0.1,0,0.2,0.1,0.2,0.2L76,24.6c0,0.1-0.2,0.2-0.3,0.2h-8.1c-0.1,0-0.2,0.1-0.3,0.2l-1.6,6
		c0,0.1,0,0.2,0.2,0.2h9.7c0.1,0,0.2,0.1,0.2,0.2l-0.7,2.5c0,0.1-0.2,0.2-0.3,0.2H61.2C61,34.1,61,34,61,33.9l5.7-20.8
		c0-0.1,0.2-0.2,0.3-0.2H80.6z"/>
</g>
</svg>
