<?xml version="1.0" encoding="utf-8"?>
<!-- Generator: Adobe Illustrator 19.2.1, SVG Export Plug-In . SVG Version: 6.00 Build 0)  -->
<svg version="1.1" id="Layer_1" xmlns="http://www.w3.org/2000/svg" xmlns:xlink="http://www.w3.org/1999/xlink" x="0px" y="0px"
	 viewBox="0 0 350 150" style="enable-background:new 0 0 350 150;" xml:space="preserve">
<style type="text/css">
	.st0{fill:#C5281C;}
</style>
<g id="text4313">
</g>
<g>
	<g>
		<g>
			<path class="st0" d="M129.1,121.3l0-10.2c6.4,0,8.7-0.3,9.8,7.5h0.7V110l-17.4,0v1.2h3v22.4H122v1.2h17.9v-9.2H139
				c-0.9,6.9-2.6,8-7.6,8h-2.3v-10.9c0.1,0,0.9,0,1.3,0c2.2,0.1,3.5,1.3,3.9,5.1h0.8l0-11.3c0,0-0.8,0-0.8,0c0,0.1-0.2,4.8-4,4.8
				H129.1z"/>
			<path class="st0" d="M122,121.8h-9.8v1.1h3.4v8.1c-0.6,2-3.6,2.9-4.5,2.9c-6.3,0-5.8-9.2-5.8-11.6c0-2.2-0.2-11.6,5.8-11.6
				c4.3,0,6.5,4.2,7.4,8h0.7c0-1.6,0-9,0-9c0-0.1-2.9,2.1-2.9,2.1c0.1,0-1.3-2-5.2-2c-7.4,0-10.1,7.4-10.1,12.5
				c0,4.7,2.2,12.7,10.1,12.7c2.5,0,4.2-1.3,5.2-2.7c0,0,3.1,2.5,3.1,2.5v-11.8h2.6V121.8z"/>
			<path class="st0" d="M236.6,125.6c-0.9,6.9-2.6,8-7.6,8h-0.3v-22.4h3.1v-1.2h-10.3v1.2h3.1l0,0v22.4h-2.5l-9.1-24.3h-1.3
				c0,0-7.6,22-7.6,22.1c0-0.1-0.6,1.9-1.8,2.1c-1.2,0.1-1.1-0.5-1.1-0.8v-4.2c0-1.1-0.1-3.6-1.2-4.8c-1.3-1.3-3.5-1.4-3.5-1.5
				c0,0,5.6-1.2,5.6-6.5c0-3.7-2.6-5.6-7-5.8h-12.4v1.2h3.2v22.4c0,0-3.1,0-3.2,0v1.2h10.1v-1.2c-0.1,0-3.2,0-3.2,0v-10.8
				c0,0,4,0,4.2,0c7.3,0.6-1.3,12,8.3,12h6v-1.2c-0.3,0-2.6,0.1-2.7-1.5c-0.1-1.1,1.5-5.1,1.5-5.1h8.2c0,0,2.6,6.6,2.6,6.6H215v1.2
				h22.4v-9.2H236.6z M193.8,121.5h-4v-10.4h5.1c3,0.5,3.1,3.9,3.1,5.1C198,118.9,196.9,121.5,193.8,121.5z M207.7,125.8l3.6-10.7
				l3.8,10.7H207.7z"/>
			<path class="st0" d="M170.6,111.1c6.4,0,8.7-0.3,9.8,7.5h0.7V110h-25.3v1.2h0.7c0.9,0,3,0.1,3.1,1.9h0v14.3L147.7,110h-6.5v1.2
				h1.1c1.3,0,3.1,0.1,3.1,1.9v18.3c0,1.8-2.7,2.5-3.8,2.5h0v0.9h8.7v-0.9c-1.1,0-3.8-0.7-3.8-2.5l0-16.1
				c4.7,6.7,13.5,19.5,13.6,19.5h0.4v-21.7c0.1-1.9,2.2-1.9,3.1-1.9h2.9v22.4h-3.3v1.2h17.9v-9.2h-0.9c-0.9,6.9-2.6,8-7.6,8h-2.3
				v-10.9c0.1,0,0.9,0,1.3,0c2.2,0.1,3.5,1.3,3.9,5.1h0.8l0-11.3c0,0-0.8,0-0.8,0c0,0.1-0.2,4.8-4,4.8h-1.2V111.1z"/>
			<polygon class="st0" points="248.7,111.2 248.7,109.9 238.6,109.9 238.6,111.2 241.8,111.2 241.8,133.5 238.6,133.5 238.6,134.7 
				248.7,134.7 248.7,133.5 245.5,133.5 245.5,111.2 			"/>
		</g>
		<g>
			<path class="st0" d="M222,94.7l3.1-1.2l0,0c4.4-1.8,5.1-3,4.9-5.9V75.6c3.4,8.6,6.6,14.6,13.1,14.6c0.9,0,1.8-0.1,2.9-0.3
				l2.6-0.6l-1.8-1.9c-1.1-1.2-1.7-2.2-2.3-3.3c-0.3-0.5-0.5-0.9-0.8-1.4c-1.5-2.5-5.2-3.3-8.1-2c-1.3-2.7-2.7-6.1-4.3-10.4
				l-0.4-0.8c-0.3-0.6-0.6-1.3-0.8-1.9v-0.1h0c-1-2.3-2.1-4.5-3.4-6.7c-1.2-1.9-2.4-3.6-3.6-5.1c-3.4-4-7.9-6.5-13.4-7.4
				c-3.8-0.6-6.5-0.8-9.9-0.9c-0.7,0-1.4-0.1-2.2-0.1c-1.5-0.1-4.7-0.3-7.8-0.6c-2.1-0.2-4.2-0.3-5.9-0.5c0.1-0.5,0.2-1,0.2-1.5
				c0-0.7-0.1-1.3-0.2-1.8h21.9c5.6,0,9.7-2.5,12.2-7.4c5.6-0.1,9.7-2.6,12.1-7.6h0.8c5.8,0,10-2.7,12.4-7.9l1-2.2h-74.2
				c-4.9,0-9,3.2-10.6,8.1l0,0.2c-1.3-3.5-3.6-6.5-6.5-8.3c-4.1-2.4-8.8-3.3-12.5-2.2c-1.2,0.4-2.5,0.9-3.5,1.6
				c-0.9,0.6-2.1,1.5-2.9,2.6c-0.9,1.2-1.9,2.7-2.5,4.1c-0.4,0.4-0.8,0.7-1,1.1l-0.9,1.7l0,0.1c-1.1,2.4-2.4,4.1-3.4,5.2
				c-1,1.2-1.1,2.3-0.9,3c0.1,0.8,0.6,1.4,1,1.9l0,0c-0.3,0.5-0.5,1.1-0.5,1.7c0,2,1.7,3.4,3.8,3.4c1.5,0,2.8-0.7,4.1-1.6
				c0.5-0.4,2-1.3,2.4-1.3c0.6,0,1.1,0.5,1.1,1.1c0,1.6-2.1,2.5-3.5,2.6l-3,0.3c-2.2,0.2-3.2,1.4-3.2,2.4c0,1,0.5,1.6,0.8,2l0.2,0.2
				l0.8,0.7l-3.2,5.1c-2.3-2.1-4.9-3.4-7.3-3.5c-1.5-0.1-2.8,0.4-3.8,1.3c-0.3,0.3-0.5,0.6-0.7,0.9c0,0,0,0-0.1,0
				c-2.5,0-4.6,1.4-5.5,2.9c-1.1,1.7-0.7,4.5,0.7,6.7l-8.1,2.1v38.5H249v-7.7H222z M241.1,84.2c0.3,0.5,0.5,0.9,0.8,1.3
				c0.3,0.5,0.6,1,0.9,1.6c-2.3-0.1-4.1-1.4-5.7-3.9C238.6,82.7,240.4,83.1,241.1,84.2z M209.1,51.2c4.8,0.8,8.7,2.9,11.6,6.4
				c0.6,0.7,1.2,1.5,1.8,2.4c-8-1.1-10.8-2.2-15.3-9C207.8,51,208.4,51.1,209.1,51.2z M205.6,39.7h-15.1c1.3-1.1,2.4-2.6,3.2-4.3
				h20.5C212.4,38.3,209.6,39.7,205.6,39.7z M217.6,32.3h-15.1c1.3-1.2,2.4-2.7,3.3-4.5h20.5C224.4,30.8,221.6,32.3,217.6,32.3z
				 M218.6,20.7H239c-1.9,2.7-4.6,4-8.4,4h-15.1C216.8,23.7,217.8,22.3,218.6,20.7z M136.2,21.5c0.5-0.6,1.3-1.3,2.2-1.9
				c0.7-0.5,1.7-0.9,2.6-1.2c1.5-0.4,3.2-0.5,4.9-0.1l-5.4,3.3c-0.7-0.1-1.3-0.1-2-0.1c-0.9,0-1.8,0.1-2.5,0.2
				C136.1,21.7,136.2,21.6,136.2,21.5z M129.9,45.4c0-0.2,0.2-0.4,0.4-0.4l2.6,0.1c3.2-0.1,6.5-1.4,6.9-4.8c0-2.3-1.6-4.5-3.9-4.5
				c-1.2,0-2.6,0.8-4.1,1.9c-1,0.7-1.8,1.2-2.4,1.2c-0.4,0-0.7-0.3-0.7-0.5c0,0,0-0.1,0-0.1l1.7-2.3l-1.5-1
				c-0.3-0.2-0.8-0.6-0.8-0.9c0-0.1,0.2-0.4,0.2-0.4c0.6-0.7,1.3-1.6,2-2.6c0.4-0.6,0.7-0.9,1.4-0.9c0.7,0,1.3,0.6,1.3,1.3
				c0,0.5,0.5,0.8,1.1,0.8s0.9-0.4,1.3-0.8c0,0,1.5-1.4,0.7-2c-0.9-0.7-4.5,0.8-3.5-2.6l0.3-0.5c0.4-0.5,2.1-1.8,5.7-1.8
				c0.7,0,1.4,0,2.1,0.1l0.5,0.1l7.6-4.7c0.1,0.2,0.1,0.3,0.1,0.3l0,0l0,0c0.4,2.3-1.1,5.1-3.4,6.4l-0.9,0.5l0.6,3.4
				c-2,0.6-3.3,2.2-3.3,4.1c0,0.6,0.2,1.4,0.3,2.4c0.2,1.1,0.5,2.3,0.5,3.6c0,3.6-4.9,5.9-9.1,5.8l-0.1,0c-0.2,0-2.8-0.2-3.5-0.7
				C130,45.8,129.9,45.6,129.9,45.4z M111,56.7c0.6-0.9,2-1.7,3.7-1.4l1.3,0.2l0.4-1.3c0.1-0.3,0.3-0.6,0.5-0.8
				c0.4-0.3,0.9-0.5,1.6-0.5c1.8,0.1,4.2,1.3,6,3.4c0.7,0.7,1.3,1.6,1.8,2.4c0.1,0.2,0.2,0.4,0.3,0.5c0.2,0.2,0.3,0.4,0.3,0.5
				c0.1,0.1,1,1.5,0.9,1.6c0.6-0.9,1.3-1.8,1.9-2.7c0,0,0-0.1-0.1-0.2c-0.1-0.3-0.5-0.8-0.7-1.1c0-0.1-0.1-0.2-0.1-0.2c0,0,0,0,0,0
				c0,0-0.1-0.2-0.2-0.3c-0.2-0.3-0.5-0.8-0.6-1.1l4-6.4c1,0.2,1.8,0.2,2.2,0.2h0.1c5.6,0,11.5-3.2,11.5-8.7l0-0.1
				c-0.1-1.5-0.3-2.9-0.6-4c-0.1-0.7-0.3-1.5-0.3-1.8c0-0.6,0.8-1.3,2-1.3h1.8l-0.8-4.7c2.6-1.9,4.1-5,4.1-7.9
				c2.8,2.1,4.7,5.8,5.1,9.7c0.1,1.1-0.1,2.7-0.5,4.4l-0.2,0.7l0,0c-0.7,2.7-1.6,5.5-2.1,6.9l-0.5,1.2l1.1,0.6
				c2.1,1.2,3.3,2,3.3,4.7c0,3.1-2.8,5.5-5.5,6l-3.7,0.7l3.1,2.1c1,0.7,1.6,1.8,1.6,2.9c0,1.9-1.7,3.5-3.7,3.5h-1.2l-0.3,1.1
				c-1.1,3.7-2.4,5.6-6.4,5.9c0.2-1.1,0.3-2.2,0.3-3.8c0-0.4,0-1.4,0-1.7l-0.2-3.5L140,65c-0.8,0.8-2.3,1.5-3.9,1.8v-3l-17.5-4.5
				l-6.2,1.6C110.9,59.5,110.7,57.2,111,56.7z M106,94.7l12.6-3.3l12.6,3.3H106z M133,92l-14.4-3.8L104.1,92V66.2l14.4-3.7l14.4,3.7
				V92z M139.7,87c-1.3,1.9-1.5,4.5-0.5,7.7h-3.2V69.9c1.1-0.2,2.4-0.5,3.5-1c-0.1,1.1-0.2,1.9-0.4,3.1c0,0.3-0.1,0.5-0.1,0.8
				l-0.3,1.8h1.8c2.7,0,4.7-0.4,6.3-1.2v10.3c0,0.3-0.2,0.5-0.5,0.5h-0.5C143.2,84.2,140.9,85.2,139.7,87z M173,87.6
				c-1.1,1.3-2.2,3.5-1.5,7h-18.7c2-0.2,3.5-0.7,4.5-1.7c1.2-1.3,1.3-3,1.3-4.3c0-0.1,0.2-0.5,1.2-0.9l1.6-0.7l-1-1.5
				c-1.6-2.5-0.9-7.8-0.3-10.8c0,0,0.1,0,0.1,0c6.4,0,10.5-1.3,14.8-2.7c1.1-0.4,2.3-0.7,3.5-1.1l0,0c0,0,1.3-0.4,3-0.8l6.1,10.1
				l0.1,0.1c0.6,0.9,0.7,1.4-0.4,2.7l-3.1,3.3l-5-0.9l0,0C176.9,85,174.5,85.9,173,87.6z M174.6,94.7c-0.6-2.2-0.3-3.9,0.7-5
				c0.9-1.1,2.4-1.4,3.4-1.3l5.8,1.1l0.1,0h0.8l4.1-4.4l0,0c0.7-0.8,2.8-3.3,0.7-6.5l-5.5-9.1c0.9-0.1,1.8-0.2,2.7-0.2l0,0
				c0,0,2.8,0,5.7,1.7c0.4,0.9,1,2,1.6,3.2c1.2,2.3,2.6,5.2,3,6.4c0.1,0.4,0.5,1.5-0.9,2.9l-10.5,11.1H174.6z M210.5,94.7h-19.9
				l8.5-9c1.7-1.8,2.3-3.9,1.5-6c-0.4-1.2-1.5-3.5-2.7-5.9c3.4,1.6,8.5,3,19,3.8c1.3,0.1,1.6,0.5,1.8,1.7l0.5,4.5l-5.5,1.2
				c-1.8,0.4-3.3,1.6-3.9,3.3C209.1,90.2,209.4,92.4,210.5,94.7z M212.7,89.4c0.3-0.8,0.9-1.3,1.7-1.4l8.2-1.8l-0.7-7.3l0-0.2
				c-0.2-1-0.8-3.9-4.6-4.2c-14.6-1.2-18-3.3-21.6-5.6c0,0,0,0,0,0l0,0l-0.2-0.1c-3.8-2.5-7.6-2.5-7.9-2.5c-4.1,0-9.4,1.6-9.8,1.8
				c-1.3,0.4-2.4,0.8-3.6,1.1c-4.6,1.5-8.5,2.7-15.2,2.5l-1.2,0l-0.3,1.2c-0.2,0.9-2.1,8.2-0.3,13c-1.6,1.3-1.6,2.7-1.6,2.9
				c0.1,1.6-0.3,2-0.4,2.1c-0.8,0.8-3.3,0.9-5.5,0.9c0,0,0,0,0,0h-0.8l-0.5,0.6c-1.3,1.8-4.2,2.2-6,1.8c-0.8-2.4-0.8-4.3-0.1-5.4
				c0.9-1.3,2.9-1.5,3.6-1.5h0.5c1.9,0,3.5-1.6,3.5-3.5V70.6c0.6-0.9,1.1-2,1.5-3.2c3.2-0.5,5.7-3.2,5.7-6.5c0-1.3-0.4-2.5-1-3.5
				c3-1.4,5.5-4.3,5.5-8.2s-1.9-5.6-3.7-6.7c0.5-1.5,1.4-4,1.9-6.6l2.6-9.2c1.1-3.6,4.1-5.9,7.6-5.9h45.2c-1.9,2.7-4.6,4-8.4,4
				h-27.4l-1.4,3.1h24.5c-1.9,3.1-4.7,4.5-8.7,4.5h-17.8l-1.4,3.1h15.9c-1.9,2.9-4.7,4.3-8.6,4.3H172l-1.4,3.1h10.2
				c0.1,0.1,0.3,0.6,0.3,1.8c0,2-1.7,3.6-3.7,3.6c-0.7,0-1.3-0.2-2.3-0.6c-0.4-0.2-0.9-0.4-1.3-0.6l-2.4,2.1
				c0.4,0.2,0.9,0.4,1.3,0.6v0c2,0.9,3.2,1.3,4.7,1.3c1.9,0,3.6-0.8,4.8-2c1.7,0.1,4.5,0.3,7.3,0.6c3.2,0.3,6.3,0.5,7.9,0.6
				c0.8,0,1.5,0.1,2.3,0.1c1.3,0.1,2.6,0.1,3.8,0.2c6.2,10,9.3,11.3,21.3,12.8c0.9,1.5,1.6,3.2,2.4,4.8v19.5l0,0.1
				c0.1,0.9,0.1,1.2-0.1,1.4c-0.4,0.5-2.3,1.3-2.9,1.6L214,94.4C212.7,92.6,212.2,90.7,212.7,89.4z"/>
			<polygon class="st0" points="129.8,70.1 120.2,67.6 120.2,70.8 129.8,73.3 			"/>
			<polygon class="st0" points="107.3,73.3 117,70.8 117,67.6 107.3,70.1 			"/>
			<polygon class="st0" points="107.3,79.6 117,77.1 117,74 107.3,76.5 			"/>
			<polygon class="st0" points="129.8,76.5 120.2,74 120.2,77.1 129.8,79.6 			"/>
			<polygon class="st0" points="129.8,82.8 120.2,80.3 120.2,83.5 129.8,86 			"/>
			<polygon class="st0" points="107.3,86 117,83.5 117,80.3 107.3,82.8 			"/>
		</g>
	</g>
</g>
</svg>
