<?xml version="1.0" encoding="utf-8"?>
<!-- Generator: Adobe Illustrator 19.2.1, SVG Export Plug-In . SVG Version: 6.00 Build 0)  -->
<svg version="1.1" id="Layer_1" xmlns="http://www.w3.org/2000/svg" xmlns:xlink="http://www.w3.org/1999/xlink" x="0px" y="0px"
	 viewBox="0 0 130 57" style="enable-background:new 0 0 130 57;" xml:space="preserve">
<style type="text/css">
	.st0{fill:url(#SVGID_1_);}
	.st1{fill:#3C3D3B;}
</style>
<g>
	
		<linearGradient id="SVGID_1_" gradientUnits="userSpaceOnUse" x1="-2.809258e-02" y1="16.2411" x2="48.6106" y2="44.3227" gradientTransform="matrix(1 0 0 -1 0 58.4383)">
		<stop  offset="0" style="stop-color:#AF1E45"/>
		<stop  offset="2.046573e-02" style="stop-color:#AF1E45"/>
		<stop  offset="0.1523" style="stop-color:#AF1E45"/>
		<stop  offset="0.205" style="stop-color:#BC213E"/>
		<stop  offset="0.2748" style="stop-color:#C92535"/>
		<stop  offset="0.3573" style="stop-color:#D3272F"/>
		<stop  offset="0.4593" style="stop-color:#DB292A"/>
		<stop  offset="0.6025" style="stop-color:#E02A28"/>
		<stop  offset="1" style="stop-color:#E12A27"/>
	</linearGradient>
	<path class="st0" d="M23.6,0.2L1.2,12.4l24.9,14.5c0.2,0.1,0.5,0.4,0.5,0.7v21.3c0,0.3-0.3,0.5-0.3,0.5l-1.5,0.8
		c-0.2,0.1-0.6,0.2-0.9,0l-1.3-0.7c-0.2-0.1-0.4-0.4-0.4-0.6V29.9c0-0.3-0.4-0.5-0.6-0.6L0,16.7V42c0,0.5,0.5,1.2,1,1.5l22.5,13.3
		c0.7,0.4,1.2,0.4,2.1-0.2l22.2-13.1c0.5-0.3,1-0.9,1-1.5V16.7l-14.9,8.7c-0.2,0.1-0.5,0.2-0.7,0l-1.3-0.8c-0.3-0.2-0.5-0.5-0.5-0.8
		l0-1.6c0-0.2,0.2-0.5,0.4-0.7l15.9-9.3L25.1,0.1C24.8,0,24-0.1,23.6,0.2L23.6,0.2z"/>
	<g>
		<path class="st1" d="M84.3,41.9V12.2h-5.6v9.7c-0.5-0.3-2.8-0.7-4.6-0.7c-5.9,0.2-10.3,4.9-10.2,10.6c0.2,7.5,4.6,10.6,11.5,11.1
			C79,43.1,83.3,42,84.3,41.9L84.3,41.9z M78.8,37.9C78.4,38,76,38.2,75.1,38c-3.7-0.6-5.4-2.5-5.5-5.7c0-3.5,1.4-6,5.7-6.2
			c0.7,0,3.1,0.4,3.4,0.7L78.8,37.9L78.8,37.9z"/>
		<path class="st1" d="M130,41.9V12.2h-5.6v9.7c-0.5-0.3-2.8-0.7-4.6-0.7c-5.9,0.2-10.3,4.9-10.2,10.6c0.2,7.5,4.6,10.6,11.5,11.1
			C124.7,43.1,128.9,42,130,41.9L130,41.9z M124.5,37.9c-0.4,0.1-2.8,0.3-3.7,0.2c-3.7-0.6-5.4-2.5-5.5-5.7c0-3.5,1.4-6,5.7-6.2
			c0.7,0,3.1,0.4,3.4,0.7L124.5,37.9L124.5,37.9z"/>
		<path class="st1" d="M87.5,23v27.9h5.6l0-24.2c0.4-0.1,2.7-0.4,3.7-0.3c3.7,0.2,5.4,2.3,5.5,5.6c0.1,2.1-0.6,3.8-2,4.9
			c-1,0.8-2.4,1.2-4.1,1.3v4.9c2.6,0.1,5.2-0.5,7.3-1.8c2.7-1.7,4.6-5.6,4.5-9.2c-0.2-6.6-3.9-10.4-11.5-10.5
			C92.8,21.2,88.5,22.5,87.5,23L87.5,23z"/>
	</g>
</g>
</svg>
