<!-- Generator: Adobe Illustrator 19.2.1, SVG Export Plug-In  -->
<svg version="1.1"
	 xmlns="http://www.w3.org/2000/svg" xmlns:xlink="http://www.w3.org/1999/xlink" xmlns:a="http://ns.adobe.com/AdobeSVGViewerExtensions/3.0/"
	 x="0px" y="0px" width="162.358px" height="121.023px" viewBox="0 0 162.358 121.023"
	 style="enable-background:new 0 0 162.358 121.023;" xml:space="preserve">
<style type="text/css">
	.st0{stroke:#FFFFFF;stroke-width:0.5;stroke-miterlimit:10;}
	.st1{fill:none;stroke:#000000;stroke-width:2;stroke-miterlimit:10;}
	.st2{stroke:#FFFFFF;stroke-miterlimit:10;}
</style>
<defs>
</defs>
<g>
	<polygon points="156.317,121.023 162.358,119.895 139.962,0 139.733,0.043 139.733,0 22.729,0 22.729,0.062 22.396,0 0,119.895 
		6.042,121.023 27.235,7.564 135.123,7.564 	"/>
	<path class="st0" d="M72.523,97.622c0,1.828-1.188,3.31-3.53,3.31h-33.52c-2.34,0-3.529-1.482-3.529-3.31l0,0
		c0-1.828,1.19-3.31,3.529-3.31h33.52C71.335,94.312,72.523,95.794,72.523,97.622L72.523,97.622z"/>
	<line class="st1" x1="68.821" y1="97.622" x2="75.44" y2="7.329"/>
	<line class="st1" x1="35.256" y1="97.622" x2="31.475" y2="7.318"/>
	<g>
		
			<ellipse transform="matrix(0.9945 -0.1044 0.1044 0.9945 -5.9491 5.7626)" class="st2" cx="52.079" cy="59.717" rx="7.247" ry="7.246"/>
		<path class="st2" d="M63.298,79.39c1.677-0.079,7.629-4.119,8.439-4.731c0.811-0.612,1.093-2.398,0.37-3.377
			c-0.721-0.979-1.939-1.399-2.743-0.975c-0.803,0.427-5.732,3.059-6.391,3.178c-0.517,0.093-4.361-2.622-6.363-3.837
			c-0.061-0.038-0.121-0.075-0.183-0.111c-0.453-0.27-0.792-0.445-0.941-0.464c-0.002,0-0.003,0.001-0.004,0.001
			c-2.197-0.88-5.004-0.781-6.977,0.375c-0.002,0-0.003,0-0.005,0c-1.199,0.187-6.024,7.035-6.668,7.21
			c-0.646,0.176-6.227-0.079-7.137-0.119c-0.907-0.037-1.826,0.866-2.057,2.06c-0.23,1.195,0.792,2.685,1.788,2.889
			c0.994,0.204,8.105,1.289,9.654,0.64c0.439-0.186,1.175-0.994,2-2.055c0.069,3.424,0.286,7.508,0.851,12.529
			c-0.296,0.116-0.613,0.254-0.971,0.434c0,0-7.298,3.835-7.725,7.012c-0.426,3.176,0.01,9.248,0.01,9.248
			c0.207,1.59,1.183,3.127,2.975,3.288c1.795,0.161,3.322-0.557,3.516-2.705c0,0,0.049-6.294-0.057-8.377
			c1.885-1.705,6.793-3.413,8.419-4.22c0.247-0.122,0.415-0.31,0.531-0.533c0.022,0.001,0.044,0.002,0.067,0.002
			c1.626,0.807,6.534,2.514,8.419,4.219c-0.106,2.084-0.057,8.377-0.057,8.377c0.192,2.146,1.722,2.865,3.517,2.704
			c1.79-0.161,2.767-1.698,2.974-3.288c0,0,0.437-6.071,0.01-9.247c-0.427-3.177-7.725-7.012-7.725-7.012
			c-0.391-0.196-0.735-0.347-1.053-0.469c-0.007-4.852-0.063-9.651-0.438-14.301C61.071,78.673,62.66,79.42,63.298,79.39z"/>
	</g>
	<path class="st0" d="M127.835,97.622c0,1.828-1.188,3.31-3.53,3.31H90.786c-2.342,0-3.53-1.482-3.53-3.31l0,0
		c0-1.828,1.188-3.31,3.53-3.31h33.519C126.646,94.312,127.835,95.794,127.835,97.622L127.835,97.622z"/>
	<line class="st1" x1="124.133" y1="97.622" x2="130.751" y2="7.329"/>
	<line class="st1" x1="90.567" y1="97.622" x2="86.786" y2="7.318"/>
	<g>
		
			<ellipse transform="matrix(0.9945 -0.1043 0.1043 0.9945 -5.6436 11.5285)" class="st2" cx="107.39" cy="59.717" rx="7.247" ry="7.246"/>
		<path class="st2" d="M118.608,79.39c1.678-0.079,7.631-4.119,8.439-4.731c0.812-0.612,1.094-2.398,0.372-3.377
			c-0.723-0.979-1.94-1.399-2.744-0.975c-0.804,0.427-5.732,3.059-6.391,3.178c-0.517,0.093-4.361-2.622-6.363-3.837
			c-0.061-0.038-0.121-0.075-0.183-0.111c-0.454-0.27-0.792-0.445-0.942-0.464c-0.001,0-0.002,0.001-0.003,0.001
			c-2.198-0.88-5.005-0.781-6.978,0.375c-0.001,0-0.002,0-0.004,0c-1.2,0.187-6.024,7.035-6.669,7.21
			c-0.645,0.176-6.227-0.079-7.135-0.119c-0.909-0.037-1.827,0.866-2.058,2.06c-0.23,1.195,0.792,2.685,1.787,2.889
			c0.994,0.204,8.106,1.289,9.654,0.64c0.44-0.186,1.176-0.994,2.001-2.055c0.069,3.424,0.286,7.508,0.85,12.529
			c-0.296,0.116-0.613,0.254-0.972,0.434c0,0-7.297,3.835-7.723,7.012c-0.427,3.176,0.009,9.248,0.009,9.248
			c0.207,1.59,1.183,3.127,2.974,3.288c1.795,0.161,3.322-0.557,3.517-2.705c0,0,0.048-6.294-0.058-8.377
			c1.886-1.705,6.794-3.413,8.42-4.22c0.246-0.122,0.415-0.31,0.531-0.533c0.022,0.001,0.044,0.002,0.067,0.002
			c1.625,0.807,6.533,2.514,8.419,4.219c-0.106,2.084-0.058,8.377-0.058,8.377c0.193,2.146,1.722,2.865,3.517,2.704
			c1.791-0.161,2.768-1.698,2.975-3.288c0,0,0.437-6.071,0.009-9.247c-0.427-3.177-7.724-7.012-7.724-7.012
			c-0.391-0.196-0.735-0.347-1.053-0.469c-0.007-4.852-0.063-9.651-0.438-14.301C116.383,78.673,117.972,79.42,118.608,79.39z"/>
	</g>
	<rect x="-30.608" y="60.62" transform="matrix(0.0209 -0.9998 0.9998 0.0209 -40.6321 84.3601)" width="106.723" height="4.609"/>
	<rect x="138.163" y="9.563" transform="matrix(0.9998 -0.0209 0.0209 0.9998 -1.2824 2.9447)" width="4.61" height="106.723"/>
</g>
</svg>