<!-- Generator: Adobe Illustrator 19.2.1, SVG Export Plug-In  -->
<svg version="1.1"
	 xmlns="http://www.w3.org/2000/svg" xmlns:xlink="http://www.w3.org/1999/xlink" xmlns:a="http://ns.adobe.com/AdobeSVGViewerExtensions/3.0/"
	 x="0px" y="0px" width="220.763px" height="220.764px" viewBox="0 0 220.763 220.764"
	 style="enable-background:new 0 0 220.763 220.764;" xml:space="preserve">
<style type="text/css">
	.st0{fill:#8AC0C7;}
	.st1{opacity:0.2;}
	.st2{fill:#EDEDED;}
	.st3{fill:#DEDEDE;}
	.st4{opacity:0.16;}
	.st5{fill:#354D5C;}
	.st6{opacity:0.15;}
	.st7{opacity:0.14;fill:#FFFFFF;}
	.st8{fill:#E6E6E6;}
	.st9{opacity:0.6;fill:#FFFFFF;}
	.st10{fill:#FFFFFF;}
</style>
<defs>
</defs>
<g>
	<path class="st0" d="M220.763,110.382c0,2.879-0.108,5.728-0.329,8.55c-0.045,0.645-0.101,1.281-0.161,1.918
		c-0.096,1.012-0.206,2.023-0.33,3.027c-1.159,9.477-3.516,18.581-6.907,27.151c-1,2.511-2.083,4.979-3.255,7.399
		c-0.393,0.812-0.794,1.619-1.209,2.418c-0.565,1.088-1.143,2.17-1.745,3.251c-0.458,0.822-0.929,1.642-1.406,2.447
		c-0.003,0.011-0.008,0.02-0.015,0.03c-13.129,22.172-33.781,39.313-58.411,47.974c-6.438,2.262-13.153,3.943-20.073,4.984
		c-0.927,0.14-1.857,0.266-2.793,0.375c-1.983,0.252-3.981,0.448-5.993,0.584c-2.207,0.155-4.435,0.245-6.675,0.265
		c-0.356,0.008-0.718,0.008-1.076,0.008c-0.806,0-1.62-0.008-2.428-0.027c-0.413-0.01-0.826-0.02-1.241-0.036
		c-0.373-0.014-0.75-0.023-1.119-0.043c-0.285-0.014-0.574-0.026-0.859-0.044c-0.59-0.025-1.184-0.062-1.769-0.102
		C45.778,216.753,0,169.138,0,110.382C0,49.423,49.423,0,110.385,0C167.997,0,215.3,44.143,220.322,100.448
		C220.614,103.719,220.763,107.035,220.763,110.382z"/>
	<path class="st1" d="M142.224,46.156h-7.629v11.24l-8.831-11.24h-10.837v11.24l-8.831-11.24H94.857v11.24l-8.831-11.24h-7.626
		v29.841h24.534v106.364H67.113v1.393l0.008,0.01c0,0,16.866,16.627,37.012,36.73c0.585,0.04,0.015,0.094,0.605,0.119
		c0.286,0.018,0.574,0.03,0.859,0.044c0.37,0.02,0.746,0.029,1.119,0.043c0.415,0.017,0.828,0.026,1.241,0.036
		c0.808,0.02,1.622,0.027,2.428,0.027c0.358,0,0.72,0,1.076-0.008c2.241-0.02,4.468-0.109,6.675-0.265
		c2.012-0.136,4.01-0.332,5.993-0.584c0.936-0.109,1.866-0.235,2.793-0.375c6.92-1.041,13.635-2.723,20.073-4.984
		c24.63-8.66,45.282-25.802,58.411-47.974c0.007-0.01,0.012-0.02,0.015-0.03c0.478-0.806,0.949-1.625,1.406-2.447
		c0.602-1.081,1.179-2.163,1.745-3.251c0.415-0.799,0.816-1.605,1.209-2.418c1.172-2.421,2.255-4.889,3.255-7.399
		c3.392-8.57,5.748-17.675,6.907-27.151L142.224,46.156z"/>
	<g>
		<path class="st2" d="M139.868,168.58h-59.06l1.955-25.621c0.023-0.289,0.172-0.577,0.413-0.743
			c3.115-2.143,4.287-2.288,4.649-3.489c0.012-0.1,0.02-0.209,0.023-0.315l1.381-42.007l0.003-0.076l0.318-9.621l0.006-0.279
			l0.014-0.421l0.144-4.527h41.246l0.114,4.527l0.31,10.321v0.033l0.035,0.153l1.392,41.88c0.005,0.1,0.02,0.199,0.028,0.292
			c0.005,0.011,0.008,0.017,0.008,0.023c0.011,0.036,0.026,0.073,0.038,0.109c0.012,0.036,0.028,0.073,0.042,0.106
			c0.028,0.066,0.064,0.133,0.101,0.192c0.032,0.056,0.064,0.107,0.108,0.159c0.197,0.266,0.477,0.487,0.875,0.736
			c0.212,0.139,0.461,0.285,0.743,0.451c0.682,0.401,1.577,0.925,2.745,1.727c0.116,0.08,0.212,0.199,0.282,0.332
			c0.051,0.1,0.091,0.209,0.111,0.318c0.014,0.04,0.017,0.076,0.02,0.116L139.868,168.58z"/>
		<path class="st3" d="M142.396,81.463c0,0.004-0.003,0-0.003,0.004c-0.005,0.003-0.005,0.006-0.008,0.013l-0.005,0.003
			c-0.091,0.127-0.184,0.252-0.272,0.382c-0.013,0.023-0.028,0.043-0.04,0.063c-3.456,4.832-6.338,9.585-9.839,14.404H88.534
			L78.367,81.453l42.688,0.026l7.113-0.007L142.396,81.463z"/>
		<path class="st4" d="M142.396,81.479c-0.003,0-0.012,0-0.017,0.003c-0.091,0.021-0.184,0.229-0.272,0.382
			c-0.013,0.023-0.028,0.043-0.04,0.063c-3.456,4.832-6.338,9.585-9.839,14.404h-0.844v0.029l0.035,0.153l1.392,41.88
			c0.005,0.1,0.02,0.199,0.028,0.292c-0.003,0-0.003,0-0.003,0c0.012,0.05,0.03,0.093,0.05,0.133
			c0.008,0.036,0.025,0.073,0.042,0.106c0.028,0.066,0.064,0.133,0.101,0.192c0.032,0.056,0.068,0.107,0.108,0.159
			c0.201,0.259,0.486,0.48,0.875,0.736c0.212,0.139,0.461,0.285,0.743,0.451c0.682,0.408,1.574,0.932,2.736,1.73
			c0.121,0.08,0.217,0.199,0.29,0.329c0.051,0.1,0.091,0.209,0.111,0.318c0.008,0.036,0.014,0.073,0.017,0.109l1.956,25.628h-29.352
			V96.518l-0.358-0.133l-0.124-0.057l-20.479-9.621l-11.184-5.254l49.801,0.023l14.217,0.003H142.396z"/>
		<path class="st5" d="M155.783,183.765V168.05c0-5.857-4.746-10.604-10.602-10.604H77.725c-5.855,0-10.604,4.746-10.604,10.604
			v15.715H155.783z"/>
		<path class="st6" d="M145.181,157.446h-9.635v26.318h20.237V168.05C155.783,162.192,151.037,157.446,145.181,157.446z"/>
		<path class="st7" d="M87.111,157.446h-9.387c-5.855,0-10.602,4.746-10.602,10.604v15.715h19.989V157.446z"/>
		<polygon class="st8" points="134.71,47.283 134.71,62.876 125.864,62.876 125.864,47.283 114.806,47.283 114.806,62.876 
			105.959,62.876 105.959,47.283 94.9,47.283 94.9,62.876 86.053,62.876 86.053,47.283 78.368,47.283 78.368,81.456 142.396,81.456 
			142.396,47.283 		"/>
		<polygon class="st9" points="94.9,47.283 94.9,62.876 86.053,62.876 86.053,47.283 78.368,47.283 78.368,81.456 94.9,81.456 
			94.9,47.283 		"/>
		<polygon class="st6" points="125.864,47.283 125.864,62.876 134.712,62.876 134.712,47.283 142.396,47.283 142.396,81.456 
			125.864,81.456 125.864,47.283 		"/>
		<g>
			<rect x="114.806" y="45.957" class="st10" width="11.058" height="2.653"/>
			<rect x="125.864" y="61.071" class="st10" width="8.846" height="2.653"/>
			<rect x="105.959" y="61.071" class="st10" width="8.848" height="2.653"/>
			<rect x="78.368" y="45.957" class="st10" width="7.685" height="2.653"/>
			<rect x="134.71" y="45.957" class="st10" width="7.687" height="2.653"/>
			<rect x="94.9" y="45.957" class="st10" width="11.058" height="2.653"/>
			<rect x="86.053" y="61.071" class="st10" width="8.847" height="2.653"/>
		</g>
	</g>
</g>
</svg>