<!-- Generator: Adobe Illustrator 19.2.1, SVG Export Plug-In  -->
<svg version="1.1"
	 xmlns="http://www.w3.org/2000/svg" xmlns:xlink="http://www.w3.org/1999/xlink" xmlns:a="http://ns.adobe.com/AdobeSVGViewerExtensions/3.0/"
	 x="0px" y="0px" width="112.196px" height="112.196px" viewBox="0 0 112.196 112.196"
	 style="enable-background:new 0 0 112.196 112.196;" xml:space="preserve">
<style type="text/css">
	.st0{fill:#FFFFFF;}
</style>
<defs>
</defs>
<g>
	<path class="st0" d="M62.095,49.257v-0.132c-0.027,0.045-0.065,0.089-0.089,0.132H62.095z"/>
	<path class="st0" d="M56.098,0C25.116,0,0,25.116,0,56.098s25.116,56.098,56.098,56.098c30.982,0,56.098-25.116,56.098-56.098
		S87.08,0,56.098,0z M41.27,83.74H27.865V43.41H41.27V83.74z M34.567,37.907H34.48c-4.498,0-7.412-3.098-7.412-6.97
		c0-3.956,3.001-6.967,7.588-6.967c4.588,0,7.407,3.011,7.496,6.967C42.152,34.809,39.244,37.907,34.567,37.907z M89.616,83.74
		H76.207V62.162c0-5.418-1.936-9.118-6.791-9.118c-3.705,0-5.906,2.491-6.878,4.903c-0.353,0.862-0.444,2.059-0.444,3.268v22.524
		h-13.41c0,0,0.18-36.546,0-40.329h13.411v5.715c1.782-2.742,4.96-6.662,12.085-6.662c8.822,0,15.436,5.764,15.436,18.149V83.74z"/>
</g>
</svg>