<!-- Generator: Adobe Illustrator 19.2.1, SVG Export Plug-In  -->
<svg version="1.1"
	 xmlns="http://www.w3.org/2000/svg" xmlns:xlink="http://www.w3.org/1999/xlink" xmlns:a="http://ns.adobe.com/AdobeSVGViewerExtensions/3.0/"
	 x="0px" y="0px" width="300px" height="300px" viewBox="0 0 300 300" style="enable-background:new 0 0 300 300;"
	 xml:space="preserve">
<style type="text/css">
	.st0{fill:#8AC0C7;}
	.st1{fill:#FFFFFF;}
	.st2{opacity:0.1;}
	.st3{fill:#EB3611;}
	.st4{opacity:0.3;fill:#FFFFFF;}
	.st5{fill:#0D2038;}
	.st6{fill:#122C4D;}
	.st7{opacity:0.2;}
	.st8{opacity:0.5;fill:url(#SVGID_1_);}
	.st9{opacity:0.5;fill:url(#SVGID_2_);}
	.st10{opacity:0.5;fill:#FFFFFF;}
	.st11{opacity:0.6;fill:#FFFFFF;}
	.st12{opacity:0.5;fill:url(#SVGID_3_);}
	.st13{opacity:0.5;fill:url(#SVGID_4_);}
</style>
<defs>
</defs>
<g>
	<path class="st0" d="M300,149.995c0,59.275-34.383,110.522-84.287,134.879c-4.232,2.064-8.569,3.935-13.011,5.598
		c-5.333,2.006-10.81,3.714-16.417,5.103c-4.744,1.19-9.584,2.141-14.5,2.849c-7.113,1.041-14.389,1.577-21.785,1.577
		c-7.249,0-14.375-0.514-21.351-1.506c-0.555-0.076-1.104-0.157-1.659-0.248c-1.713-0.261-3.421-0.555-5.116-0.874
		c-2.337-0.446-4.655-0.942-6.954-1.496c-5.884-1.411-11.642-3.168-17.233-5.255c-4.438-1.65-8.767-3.493-12.988-5.54
		C34.568,260.801,0,209.436,0,149.995C0,67.157,67.155,0,150.001,0c69.681,0,128.27,47.515,145.118,111.914
		c0.239,0.915,0.473,1.829,0.697,2.754c0.174,0.73,0.344,1.46,0.507,2.19c0.084,0.347,0.158,0.69,0.233,1.037
		C298.812,128.239,300,138.98,300,149.995z"/>
	<path class="st1" d="M208.19,189.605l0.365-1.906l-1.35-0.261l-0.539-1.262l-1.113,0.473l-24.051-26.971l-20.145,20.147
		l41.17,41.169l14.894-21.035L208.19,189.605z M213.913,200.151l-10.61,14.987l4.239-22.135L213.913,200.151z M205.236,190.421
		l-4.724,24.668l-16.331-16.33l20.636-8.807L205.236,190.421z M202.886,187.788l-18.437,7.87l8.477-19.043L202.886,187.788z
		 M181.33,195.906l-15.289-15.289l24.54-5.499L181.33,195.906z M189.327,172.581l-21.704,4.868l13.768-13.77L189.327,172.581z"/>
	<path class="st1" d="M119.734,159.677l-24.048,26.971l-1.113-0.473l-0.539,1.262l-1.352,0.261l0.368,1.906l-9.231,10.353
		l14.894,21.035l41.17-41.169L119.734,159.677z M96.003,190.421l0.419-0.469l20.635,8.807l-16.33,16.33L96.003,190.421z
		 M119.85,163.679l13.767,13.77l-21.707-4.868L119.85,163.679z M135.199,180.618l-15.288,15.289l-9.254-20.787L135.199,180.618z
		 M108.313,176.615l8.476,19.043l-18.437-7.87L108.313,176.615z M93.698,193.003l4.239,22.135l-10.611-14.987L93.698,193.003z"/>
	<path class="st1" d="M177.291,202.545c-0.646,3.011-1.36,5.995-2.145,8.929c-1.579,5.977-3.424,11.8-5.533,17.416h-38.663
		c-2.117-5.634-3.967-11.48-5.546-17.479c-0.784-2.943-1.5-5.927-2.146-8.942c-10.613-49.246-3.896-107.145,22.957-148.206
		c1.319-1.924,2.598-3.299,4.061-3.299c1.458,0,2.752,1.375,4.063,3.299C181.215,95.346,187.923,153.277,177.291,202.545z"/>
	<path class="st2" d="M154.34,54.262c-1.311-1.924-2.605-3.299-4.063-3.299c-0.024,0-0.046,0.009-0.074,0.009V228.89h19.411
		c2.109-5.616,3.953-11.439,5.533-17.416c0.784-2.934,1.498-5.918,2.145-8.929C187.923,153.277,181.215,95.346,154.34,54.262z"/>
	<path class="st3" d="M173.929,97.694c-4.559-15.631-11.052-30.383-19.589-43.432c-1.311-1.924-2.605-3.299-4.063-3.299
		c-1.462,0-2.742,1.375-4.061,3.299c-8.534,13.048-15.026,27.801-19.584,43.432C144.359,89.793,153.645,90.441,173.929,97.694z"/>
	<path class="st3" d="M84.296,227.605c-7.348-23.825-6.062-56.02,5.583-77.682c0.479-0.857,0.947-1.47,1.485-1.47
		c0.529,0,1.002,0.613,1.485,1.47c11.641,21.661,12.928,53.857,5.579,77.682H84.296z"/>
	<path class="st3" d="M216.108,227.605c7.349-23.825,6.062-56.02-5.582-77.682c-0.48-0.857-0.95-1.47-1.484-1.47
		c-0.532,0-1.005,0.613-1.485,1.47c-11.645,21.661-12.93,53.857-5.583,77.682H216.108z"/>
	<path class="st4" d="M149.998,300c-7.249,0-14.372-0.514-21.349-1.506l9.24-55.997l0.117-0.712h24.492l0.117,0.712l9.17,55.926
		C164.673,299.464,157.397,300,149.998,300z"/>
	<polygon class="st5" points="171.732,242.637 128.775,242.637 130.948,233.474 169.562,233.474 	"/>
	<polygon class="st6" points="171.732,238.053 128.775,238.053 130.948,228.894 169.562,228.894 	"/>
	<g>
		<circle class="st7" cx="150.254" cy="121.064" r="12.246"/>
		<path class="st6" d="M150.253,134.937c-7.649,0-13.873-6.22-13.873-13.873c0-7.653,6.224-13.878,13.873-13.878
			c7.653,0,13.877,6.225,13.877,13.878C164.13,128.717,157.906,134.937,150.253,134.937z M150.253,110.444
			c-5.852,0-10.617,4.764-10.617,10.619c0,5.855,4.764,10.618,10.617,10.618c5.855,0,10.619-4.763,10.619-10.618
			C160.872,115.209,156.108,110.444,150.253,110.444z"/>
	</g>
	<rect x="84.296" y="227.605" class="st6" width="13.993" height="4.268"/>
	<rect x="202.045" y="227.605" class="st6" width="13.993" height="4.268"/>
	<linearGradient id="SVGID_1_" gradientUnits="userSpaceOnUse" x1="91.3625" y1="290.6208" x2="91.3625" y2="229.7373">
		<stop  offset="0" style="stop-color:#000000"/>
		<stop  offset="1" style="stop-color:#FFFFFF"/>
	</linearGradient>
	<path class="st8" d="M97.687,290.621c-4.438-1.65-8.767-3.493-12.988-5.54c-1.027-18.745-1.108-37.505-0.235-55.344h13.795
		C99.218,249.334,99.033,270.041,97.687,290.621z"/>
	<linearGradient id="SVGID_2_" gradientUnits="userSpaceOnUse" x1="209.0413" y1="229.7373" x2="209.0413" y2="290.4716">
		<stop  offset="0" style="stop-color:#FFFFFF"/>
		<stop  offset="1" style="stop-color:#000000"/>
	</linearGradient>
	<path class="st9" d="M215.713,284.874c-4.232,2.064-8.569,3.935-13.011,5.598c-1.331-20.53-1.514-41.182-0.555-60.734h13.786
		C216.806,247.513,216.737,266.196,215.713,284.874z"/>
	<path class="st3" d="M177.291,202.545c-0.646,3.011-1.36,5.995-2.145,8.929c-16.53,1.874-33.218,1.852-49.741-0.063
		c-0.784-2.943-1.5-5.927-2.146-8.942C141.184,204.92,159.357,204.943,177.291,202.545z"/>
	<path class="st10" d="M186.286,295.574c-4.746,1.19-9.584,2.141-14.5,2.849c-7.113,1.041-14.389,1.577-21.788,1.577
		c-7.249,0-14.372-0.514-21.349-1.506c-0.556-0.076-1.107-0.157-1.66-0.248c-1.713-0.261-3.42-0.555-5.115-0.874
		c-2.338-0.446-4.658-0.942-6.954-1.496l14.488-53.379h43.588L186.286,295.574z"/>
	<path class="st11" d="M74.932,99.934c-2.095,0-4.11,0.121-6.001,0.351c-1.371-4.836-9.846-8.559-20.104-8.559
		c-8.104,0-15.099,2.326-18.354,5.684c-1.878-0.505-3.967-0.789-6.166-0.789c-8.161,0-14.776,3.876-14.776,8.654
		c0,4.782,6.614,8.654,14.776,8.654h46.169v-0.189c1.429,0.121,2.921,0.189,4.455,0.189c10.622,0,19.231-3.133,19.231-6.995
		C94.163,103.067,85.554,99.934,74.932,99.934z"/>
	<path class="st10" d="M207.586,77.727c2.095,0,4.113,0.126,6.001,0.352c1.368-4.836,9.844-8.56,20.102-8.56
		c8.108,0,15.101,2.326,18.356,5.688c1.877-0.51,3.964-0.793,6.166-0.793c8.158,0,14.772,3.876,14.772,8.654
		c0,4.782-6.614,8.659-14.772,8.659h-46.17v-0.194c-1.431,0.126-2.92,0.194-4.455,0.194c-10.621,0-19.231-3.133-19.231-7
		C188.356,80.859,196.966,77.727,207.586,77.727z"/>
</g>
</svg>