<!-- Generator: Adobe Illustrator 19.2.1, SVG Export Plug-In  -->
<svg version="1.1"
	 xmlns="http://www.w3.org/2000/svg" xmlns:xlink="http://www.w3.org/1999/xlink" xmlns:a="http://ns.adobe.com/AdobeSVGViewerExtensions/3.0/"
	 x="0px" y="0px" width="300px" height="299.998px" viewBox="0 0 300 299.998" style="enable-background:new 0 0 300 299.998;"
	 xml:space="preserve">
<style type="text/css">
	.st0{fill:#8AC0C7;}
	.st1{opacity:0.2;}
	.st2{fill:#0E2037;}
	.st3{fill:#FFFFFF;}
	.st4{opacity:0.15;fill:#231F20;}
	.st5{fill:#364D5C;}
	.st6{fill:#BF230F;}
	.st7{fill:#F55E4C;}
	.st8{fill:#F53C26;}
</style>
<defs>
</defs>
<g>
	<path class="st0" d="M299.996,150.896c-0.015,2.47-0.074,4.916-0.205,7.408c-4.147,75.991-64.787,136.782-140.461,141.408
		c-3.371,0.211-6.789,0.305-10.227,0.284c-3.322-0.02-6.643-0.154-9.918-0.382c-1.339-0.1-2.654-0.2-3.948-0.323
		c-2.374-0.244-4.727-0.536-7.08-0.872c-2.28-0.337-4.538-0.721-6.776-1.149c-3.089-0.596-6.154-1.283-9.148-2.088
		C47.348,278.366-0.416,219.211,0.003,149.104C0.498,66.26,68.078-0.492,150.896,0.003c67.845,0.405,124.92,45.794,143.084,107.726
		c1.13,3.861,2.098,7.765,2.926,11.741c0.495,2.401,0.94,4.806,1.318,7.23c0.802,5.268,1.37,10.647,1.612,16.071
		c0.021,0.252,0.02,0.507,0.043,0.762C299.981,145.981,300.011,148.425,299.996,150.896z"/>
	<path class="st1" d="M299.996,150.896c-0.015,2.47-0.074,4.916-0.205,7.408c-4.147,75.991-64.787,136.782-140.461,141.408
		c-3.371,0.211-6.789,0.305-10.227,0.284c-3.322-0.02-6.643-0.154-9.918-0.382c-1.339-0.1-2.654-0.2-3.948-0.323
		c-2.374-0.244-4.727-0.536-7.08-0.872c-31.401-31.783-63.972-64.677-64.135-64.678l0.829-138.757l-4.407-0.026l0.086-14.332
		l0.829,0.005l80.881-29.769c0.484-4.221,4.061-7.522,8.396-7.496c3.6,0.022,6.612,2.322,7.792,5.492
		c1.819,0.68,3.287,1.98,4.246,3.627l76.535,29.209l1.108,0.007c0,0,31.032,31.893,59.519,61.073
		c0.021,0.252,0.02,0.507,0.043,0.762C299.981,145.981,300.011,148.425,299.996,150.896z"/>
	<g>
		
			<rect x="58.481" y="65.681" transform="matrix(0.9384 -0.3454 0.3454 0.9384 -16.8239 39.4215)" class="st2" width="87.425" height="2.464"/>
		
			<rect x="197.315" y="23.776" transform="matrix(0.3567 -0.9342 0.9342 0.3567 64.6674 228.8953)" class="st2" width="2.465" height="87.426"/>
	</g>
	<g>
		
			<rect x="79.919" y="78.61" transform="matrix(0.006 -1 1 0.006 -15.0688 313.0506)" class="st3" width="140.019" height="170.99"/>
		<polygon class="st4" points="64.824,98.517 235.764,106.95 235.84,94.607 64.854,93.586 		"/>
		
			<rect x="143.214" y="-1.562" transform="matrix(0.006 -1 1 0.006 61.1485 238.183)" class="st2" width="14.331" height="179.792"/>
		
			<rect x="148.273" y="-6.591" transform="matrix(0.006 -1 1 0.006 66.2072 233.2142)" class="st5" width="4.273" height="179.792"/>
		
			<rect x="146.995" y="146.226" transform="matrix(0.006 -1 1 0.006 -83.0851 379.8563)" class="st5" width="5.057" height="170.987"/>
		<path class="st4" d="M178.656,117.037l-6.615,5.891l-0.17,28.494l-11.237-13.069l-23.595-0.141l-6.604,4.651l-0.14,23.43
			c-0.025,0-11.236-13.021-11.236-13.021l-23.597-0.141l-6.598,3.698l-0.368,61.585l10.685,10.813l135.849,0.811l0.471-78.902
			c-0.269-0.27-33.253-33.96-33.253-33.96L178.656,117.037z"/>
		<g>
			<g>
				<polygon class="st6" points="112.388,218.559 118.693,214.791 119.061,153.204 112.756,156.97 				"/>
				<polygon class="st7" points="88.862,156.827 112.756,156.97 119.06,153.273 95.463,153.132 				"/>
				
					<rect x="69.83" y="175.746" transform="matrix(0.006 -1 1 0.006 -87.6658 287.1954)" class="st8" width="61.59" height="23.894"/>
			</g>
			<g>
				<polygon class="st6" points="153.872,218.807 160.184,214.161 160.637,138.354 154.325,143 				"/>
				<polygon class="st7" points="130.433,142.857 154.325,143 160.637,138.354 137.039,138.213 				"/>
				
					<rect x="104.249" y="168.886" transform="matrix(0.006 -1 1 0.006 -39.5251 321.9023)" class="st8" width="75.809" height="23.892"/>
			</g>
			<g>
				<polygon class="st6" points="195.358,219.055 201.676,213.163 202.249,117.178 195.932,123.07 				"/>
				<polygon class="st7" points="172.04,122.927 195.932,123.07 202.249,117.178 178.653,117.037 				"/>
				
					<rect x="135.706" y="159.045" transform="matrix(0.006 -1 1 0.006 11.6139 353.6655)" class="st8" width="95.987" height="23.892"/>
			</g>
		</g>
	</g>
	<g>
		<rect x="143.98" y="237.891" transform="matrix(0.006 -1 1 0.006 -91.0284 387.6584)" class="st2" width="10.993" height="3.45"/>
		<path class="st2" d="M149.458,242.651c-4.966-0.03-9.029,3.987-9.059,8.954c-0.03,4.964,3.986,9.029,8.952,9.059
			s9.031-3.987,9.06-8.951C158.441,246.746,154.424,242.681,149.458,242.651z M149.369,257.507
			c-3.223-0.019-5.834-2.659-5.815-5.883c0.019-3.227,2.661-5.835,5.885-5.816c3.226,0.019,5.834,2.659,5.815,5.886
			C155.235,254.919,152.595,257.527,149.369,257.507z"/>
	</g>
	<g>
		<ellipse transform="matrix(0.006 -1 1 0.006 97.8803 202.105)" class="st3" cx="150.598" cy="51.819" rx="7.312" ry="7.312"/>
		<path class="st2" d="M150.649,43.365c-4.661-0.028-8.476,3.742-8.504,8.403c-0.028,4.663,3.742,8.479,8.403,8.506
			c4.662,0.028,8.477-3.742,8.505-8.405C159.08,47.208,155.31,43.393,150.649,43.365z M150.561,57.989
			c-3.401-0.02-6.152-2.805-6.131-6.208c0.02-3.401,2.804-6.151,6.205-6.131c3.403,0.02,6.153,2.804,6.133,6.205
			C156.747,55.258,153.964,58.01,150.561,57.989z"/>
	</g>
</g>
</svg>