<!-- Generator: Adobe Illustrator 19.2.1, SVG Export Plug-In  -->
<svg version="1.1"
	 xmlns="http://www.w3.org/2000/svg" xmlns:xlink="http://www.w3.org/1999/xlink" xmlns:a="http://ns.adobe.com/AdobeSVGViewerExtensions/3.0/"
	 x="0px" y="0px" width="220.764px" height="220.763px" viewBox="0 0 220.764 220.763"
	 style="enable-background:new 0 0 220.764 220.763;" xml:space="preserve">
<style type="text/css">
	.st0{fill:#8AC0C7;}
	.st1{fill:#FFFFFF;}
	.st2{fill:#D72027;}
	.st3{fill:#F05439;}
	.st4{opacity:0.25;fill:#010101;}
	.st5{fill:#D4D1DC;}
	.st6{fill:#A6A2AB;}
	.st7{fill:#E6642A;}
	.st8{fill:#B95227;}
</style>
<defs>
</defs>
<g>
	<path class="st0" d="M110.382,0C49.516,0,0,49.518,0,110.382c0,60.864,49.516,110.381,110.382,110.381
		c60.864,0,110.382-49.517,110.382-110.381C220.764,49.518,171.246,0,110.382,0z"/>
	<g>
		<path class="st1" d="M110.382,38.178c-39.814,0-72.206,32.39-72.206,72.204c0,39.814,32.392,72.205,72.206,72.205
			c39.814,0,72.206-32.391,72.206-72.205C182.588,70.567,150.196,38.178,110.382,38.178z"/>
		<path class="st2" d="M110.382,50.819c-32.845,0-59.563,26.72-59.563,59.562c0,32.842,26.719,59.562,59.563,59.562
			c32.843,0,59.562-26.721,59.562-59.562C169.943,77.539,143.225,50.819,110.382,50.819z"/>
		<circle class="st3" cx="110.381" cy="110.382" r="46.96"/>
		<circle class="st2" cx="110.381" cy="110.382" r="32.846"/>
		<circle class="st1" cx="110.381" cy="110.382" r="20.992"/>
		<circle class="st2" cx="110.382" cy="110.382" r="8.185"/>
		<polygon class="st4" points="214.707,75.902 179.954,81.13 171.562,95.273 108.318,104.783 113.896,116.315 173.924,106.092 
			185.216,116.131 219.966,110.911 202.929,95.758 		"/>
		<g>
			<path class="st5" d="M107.349,104.719c0.29,2.832,0.779,4.912,1.618,6.616l84.391-47.202l-2.999-5.406L107.349,104.719z"/>
			<path class="st6" d="M108.967,111.335c0.994,2.021,2.483,3.511,4.821,5.005l83.013-45.989l-3.443-6.218L108.967,111.335z"/>
		</g>
		<g>
			<polygon class="st7" points="164.292,56.194 161.949,82.08 192.709,65.062 192.688,65.05 195.031,39.163 			"/>
			<polygon class="st8" points="161.949,82.08 184.926,93.435 215.665,76.405 192.709,65.062 			"/>
		</g>
	</g>
</g>
</svg>