<!-- Generator: Adobe Illustrator 19.2.1, SVG Export Plug-In  -->
<svg version="1.1"
	 xmlns="http://www.w3.org/2000/svg" xmlns:xlink="http://www.w3.org/1999/xlink" xmlns:a="http://ns.adobe.com/AdobeSVGViewerExtensions/3.0/"
	 x="0px" y="0px" width="220.764px" height="220.764px" viewBox="0 0 220.764 220.764"
	 style="enable-background:new 0 0 220.764 220.764;" xml:space="preserve">
<style type="text/css">
	.st0{fill:#8AC0C7;}
	.st1{opacity:0.3;fill:#0D2038;}
	.st2{fill:#E6E6E6;}
	.st3{fill:#FFFFFF;}
	.st4{fill:#0D2038;}
	.st5{opacity:0.6;fill:#FFFFFF;}
</style>
<defs>
</defs>
<g>
	<path class="st0" d="M220.763,110.082c0.002,0.796,0.004,1.579-0.029,2.342c0.001,0.442-0.014,0.867-0.03,1.308
		c0.001,0.357-0.015,0.748-0.032,1.138c-0.031,0.713-0.063,1.445-0.111,2.158c0,0.05,0,0.101-0.016,0.169
		c-0.148,2.498-0.378,4.993-0.695,7.458c-0.067,0.543-0.131,1.035-0.216,1.563c-0.233,1.629-0.5,3.245-0.818,4.858
		c-0.319,1.699-0.671,3.365-1.074,5.013c-10.459,43.874-47.134,77.616-92.561,83.683c-1.189,0.156-2.394,0.295-3.599,0.418
		c-3.583,0.366-7.232,0.564-10.901,0.573C49.717,220.929,0.166,171.644,0,110.681C-0.165,49.732,49.118,0.166,110.083,0
		c60.438-0.164,109.68,48.286,110.66,108.57C220.761,109.062,220.762,109.571,220.763,110.082z"/>
	<path class="st1" d="M220.734,112.424c0.001,0.442-0.014,0.867-0.03,1.308c0.001,0.357-0.015,0.748-0.032,1.138
		c-0.031,0.713-0.063,1.445-0.111,2.158c0,0.05,0,0.101-0.016,0.169c-0.148,2.498-0.378,4.993-0.695,7.458
		c-0.067,0.543-0.131,1.035-0.216,1.563c-0.233,1.629-0.5,3.245-0.818,4.858c-0.319,1.699-0.671,3.365-1.074,5.013
		c-10.459,43.874-47.134,77.616-92.561,83.683c-1.189,0.156-2.394,0.295-3.599,0.418c-15.341-15.142-28.437-28.096-28.437-28.113
		c-0.034-0.255,0.05-0.494,0.186-0.713c0.033-0.07,0.085-0.136,0.136-0.206c-0.204-0.119-0.409-0.252-0.597-0.371
		c-1.309-0.846-2.602-1.691-3.945-2.537c-0.087-0.051-0.136-0.135-0.205-0.203c-0.188-0.202-0.341-0.457-0.377-0.746
		c-0.017-0.239,0.067-0.476,0.186-0.697c0.068-0.12,0.135-0.239,0.22-0.322c1.221-1.075,2.457-2.164,3.744-3.237
		c0.052-0.052,0.085-0.103,0.119-0.153c-0.341-0.221-0.662-0.423-0.935-0.609c-0.24-0.154-0.376-0.389-0.477-0.644
		c-0.033-0.103-0.086-0.204-0.086-0.323c0-0.102,0.033-0.188,0.051-0.289c0.048-0.204,0.133-0.407,0.268-0.561
		c-1.581-1.049-3.351-2.182-4.541-2.941c-0.238-0.152-0.392-0.391-0.476-0.646c-0.036-0.119-0.086-0.202-0.087-0.321
		c-0.017-0.103,0.034-0.188,0.05-0.289c0.051-0.289,0.169-0.561,0.39-0.731c1.1-0.887,2.694-2.165,4.066-3.255
		c0.016,0,0.034-0.035,0.051-0.035c-0.425-0.252-0.818-0.49-1.156-0.693c-0.188-0.117-0.324-0.253-0.425-0.424
		c-0.104-0.169-0.173-0.373-0.173-0.577c-0.016-0.101,0.035-0.204,0.051-0.307c0.051-0.169,0.119-0.322,0.219-0.475
		c0.052-0.069,0.102-0.137,0.168-0.205c-1.633-0.98-3.402-2.045-4.626-2.788c-0.186-0.103-0.322-0.238-0.426-0.407
		c-0.102-0.169-0.17-0.375-0.187-0.577c0-0.119,0.049-0.206,0.068-0.305c0.033-0.189,0.1-0.342,0.219-0.478
		c0.067-0.083,0.117-0.202,0.219-0.272c1.187-0.869,2.899-2.13,4.39-3.203c0.033-0.035,0.052-0.086,0.1-0.119
		c-0.646-0.456-1.241-0.914-1.803-1.388c-0.104-0.084-0.188-0.168-0.29-0.255l-0.016-0.017c-0.24-0.185-0.426-0.424-0.614-0.625
		c-0.017-0.017-0.035-0.035-0.052-0.051c-0.017-0.018-0.033-0.035-0.05-0.051c-0.512-0.592-0.92-1.238-1.262-1.899
		c-0.902-0.591-1.753-1.201-2.503-1.86c-0.101-0.085-0.203-0.17-0.289-0.255C82.431,155,82.431,155,82.431,155
		c-0.221-0.203-0.426-0.424-0.631-0.627c-0.016-0.017-0.033-0.033-0.049-0.049c0-0.019-0.035-0.035-0.035-0.053
		c-7.188-8.199,4.386-23.327-9.594-37.367c-9.774-9.722-15.839-23.171-15.88-38.047c-0.04-14.875,5.951-28.341,15.673-38.115
		c9.721-9.774,23.17-15.839,38.046-15.879l0.375-0.001c14.876-0.04,28.358,5.951,38.132,15.672c0.8,0.779,1.55,1.608,2.299,2.455
		C151.381,43.53,190.835,82.72,220.734,112.424z"/>
	<g>
		<path class="st2" d="M110.336,24.854c14.874-0.04,28.353,5.952,38.128,15.671c9.772,9.722,15.837,23.17,15.878,38.044
			c0.04,14.872-5.951,28.355-15.671,38.127c-20.458,20.754,14.41,43.585-36.611,43.677c-0.524,0.001-1.04-0.005-1.544-0.017
			l-0.367-135.497C110.21,24.858,110.271,24.854,110.336,24.854z"/>
		<path class="st3" d="M109.958,24.855c-14.872,0.04-28.321,6.105-38.041,15.878c-9.722,9.774-15.713,23.255-15.673,38.129
			c0.04,14.872,6.105,28.322,15.88,38.041c20.572,20.643-14.176,43.662,36.846,43.477c0.524-0.001,1.04-0.011,1.546-0.026
			l-0.367-135.497C110.083,24.858,110.02,24.855,109.958,24.855z"/>
		<path class="st4" d="M136.227,164.608c0.331,0.243,0.519,0.639,0.502,1.052c-0.02,0.411-0.248,0.785-0.603,0.996
			c-1.969,1.17-3.894,2.336-5.777,3.503c-0.342,0.211-0.56,0.579-0.58,0.982c-0.021,0.401,0.155,0.789,0.476,1.037
			c1.388,1.074,2.989,2.345,4.085,3.225c0.309,0.246,0.481,0.625,0.46,1.022c-0.019,0.393-0.227,0.755-0.56,0.97
			c-1.435,0.929-3.684,2.393-5.461,3.575c-0.324,0.215-0.526,0.567-0.547,0.955c-0.021,0.388,0.14,0.762,0.439,1.012
			c1.104,0.92,2.362,1.995,3.752,3.229c0.289,0.256,0.439,0.634,0.41,1.019c-0.032,0.383-0.24,0.732-0.566,0.94
			c-1.771,1.124-3.495,2.248-5.176,3.37c-0.644,0.431-1.375,0.689-2.144,0.762c-2.622,0.253-5.242,1.317-7.863,2.234
			c-2.177,0.765-4.358,1.426-6.539,1.432c-2.139,0.006-4.279-0.63-6.417-1.374c-2.596-0.897-5.188-1.949-7.778-2.204
			c-0.824-0.081-1.625-0.362-2.318-0.819c-1.657-1.094-3.358-2.187-5.1-3.283c-0.329-0.207-0.539-0.552-0.573-0.935
			c-0.031-0.386,0.119-0.765,0.404-1.023c1.21-1.081,2.456-2.164,3.739-3.249c0.295-0.25,0.456-0.627,0.434-1.014
			c-0.024-0.388-0.231-0.739-0.554-0.952c-1.788-1.173-4.047-2.624-5.488-3.546c-0.331-0.213-0.542-0.574-0.563-0.967
			c-0.021-0.396,0.146-0.776,0.454-1.024c1.095-0.884,2.686-2.162,4.067-3.245c0.318-0.25,0.492-0.64,0.468-1.041
			c-0.023-0.403-0.242-0.769-0.587-0.978c-1.892-1.149-4.255-2.566-5.789-3.482c-0.356-0.211-0.579-0.582-0.599-0.993
			c-0.02-0.411,0.165-0.805,0.496-1.049c1.187-0.879,2.893-2.136,4.386-3.206c0.339-0.245,0.532-0.646,0.51-1.064
			c-0.023-0.419-0.258-0.797-0.623-1.001c-2.688-1.523-5.581-3.187-7.396-5.206l57.574-0.156c-1.438,2.307-4.529,3.795-7.291,5.248
			c-0.377,0.199-0.623,0.581-0.652,1.005c-0.031,0.426,0.166,0.837,0.513,1.083C133.341,162.505,135.039,163.74,136.227,164.608z"/>
		<path class="st5" d="M131.342,160.363c-0.029,0.425,0.161,0.839,0.512,1.083c1.487,1.058,3.189,2.295,4.374,3.163
			c0.331,0.245,0.524,0.637,0.499,1.053c-0.015,0.411-0.244,0.787-0.598,0.995c-1.97,1.171-3.897,2.334-5.777,3.503
			c-0.343,0.21-0.562,0.577-0.579,0.982c-0.024,0.4,0.155,0.791,0.474,1.037c1.39,1.074,2.989,2.345,4.085,3.225
			c0.309,0.243,0.481,0.624,0.458,1.022c-0.018,0.393-0.226,0.755-0.555,0.97c-1.438,0.929-3.685,2.395-5.464,3.577
			c-0.325,0.215-0.526,0.563-0.55,0.955c-0.016,0.388,0.143,0.761,0.438,1.011c1.106,0.922,2.366,1.994,3.754,3.227
			c0.289,0.257,0.441,0.637,0.414,1.015c-0.037,0.388-0.243,0.737-0.568,0.947c-1.769,1.12-3.495,2.247-5.176,3.374
			c-0.642,0.425-1.371,0.684-2.144,0.759c-2.62,0.251-5.243,1.321-7.863,2.234c-2.18,0.767-4.358,1.423-6.534,1.429
			c-2.14,0.006-4.288-0.627-6.424-1.374c-2.593-0.895-5.184-1.948-7.778-2.205c-0.82-0.077-1.623-0.364-2.311-0.816
			c-1.665-1.098-3.36-2.19-5.104-3.283c-0.324-0.208-0.541-0.556-0.573-0.937c-0.031-0.385,0.116-0.766,0.408-1.025
			c1.204-1.081,2.452-2.164,3.737-3.247c0.293-0.251,0.452-0.625,0.432-1.013c-0.024-0.392-0.229-0.739-0.554-0.952
			c-1.786-1.172-4.047-2.626-5.489-3.547c-0.333-0.213-0.541-0.574-0.56-0.967c-0.026-0.398,0.144-0.78,0.45-1.024
			c1.093-0.885,2.684-2.165,4.067-3.247c0.32-0.248,0.494-0.633,0.468-1.039c-0.018-0.404-0.238-0.77-0.583-0.978
			c-1.892-1.154-4.257-2.569-5.791-3.485c-0.356-0.205-0.577-0.579-0.598-0.99c-0.026-0.411,0.164-0.803,0.495-1.048
			c1.187-0.882,2.893-2.135,4.388-3.208c0.342-0.246,0.53-0.644,0.511-1.067c-0.026-0.416-0.259-0.796-0.628-1.004
			c-2.684-1.518-5.579-3.184-7.396-5.202l57.574-0.156c-1.435,2.309-4.527,3.795-7.286,5.249
			C131.617,159.553,131.367,159.933,131.342,160.363z"/>
		<path class="st4" d="M139.161,154.295L90.5,165.583l40.837-5.218C135.251,158.644,137.938,156.708,139.161,154.295z"/>
		<path class="st4" d="M136.719,165.458L90.39,176.38l39.379-5.238C133.537,169.209,137.314,167.12,136.719,165.458z"/>
		<path class="st4" d="M134.79,176.425l-44.232,10.709l37.664-5.208C131.549,179.91,135.473,177.491,134.79,176.425z"/>
		<path class="st4" d="M117.074,194.491c-2.177,0.765-4.358,1.426-6.539,1.432c-2.135,0.006-4.279-0.63-6.417-1.376
			c1.583-1.467,3.904-2.392,6.483-2.399C113.169,192.142,115.478,193.048,117.074,194.491z"/>
		<path class="st1" d="M134.419,88.182l-12.6,65.973l-4.431,0.012c-0.012-0.19-0.001-0.388,0.035-0.582l12.311-64.453
			c-1.622-1.259-2.469-3.713-3.247-5.961c-0.37-1.085-1.031-2.994-1.567-3.673c-0.524,0.682-1.176,2.594-1.546,3.681
			c-1.089,3.202-2.323,6.834-5.725,6.843c-3.409,0.009-4.663-3.616-5.763-6.812c-0.376-1.085-1.037-2.994-1.568-3.673
			c-0.528,0.682-1.18,2.594-1.546,3.681c-1.089,3.202-2.324,6.834-5.724,6.843c-3.408,0.009-4.657-3.616-5.764-6.812
			c-0.376-1.085-1.038-2.994-1.568-3.673c-0.531,0.682-1.175,2.594-1.545,3.681c-0.767,2.253-1.6,4.711-3.214,5.979l12.622,64.385
			c0.039,0.194,0.053,0.391,0.04,0.582l-4.431,0.012L86.269,88.312c-0.125-0.652,0.044-1.319,0.461-1.829
			c0.39-0.474,0.96-0.764,1.565-0.807c0.55-0.485,1.288-2.652,1.689-3.842c1.088-3.197,2.316-6.827,5.723-6.836
			c3.41-0.009,4.657,3.614,5.764,6.805c0.378,1.09,1.032,2.994,1.568,3.681c0.524-0.683,1.175-2.597,1.547-3.689
			c1.083-3.197,2.315-6.827,5.723-6.836c3.408-0.009,4.657,3.614,5.762,6.805c0.376,1.09,1.034,3.001,1.569,3.681
			c0.524-0.683,1.176-2.597,1.545-3.689c1.09-3.197,2.317-6.827,5.726-6.836c3.408-0.009,4.663,3.614,5.763,6.805
			c0.413,1.188,1.16,3.35,1.714,3.833c0.61,0.04,1.172,0.327,1.565,0.799C134.373,86.864,134.548,87.53,134.419,88.182z"/>
	</g>
</g>
</svg>